<svg width="80px" height="75px" viewBox="0 0 80 75" version="1.1" xmlns="http://www.w3.org/2000/svg" xmlns:xlink="http://www.w3.org/1999/xlink">
    <g id="页面-1" stroke="none" stroke-width="1" fill="none" fill-rule="evenodd" opacity="0.179999992">
        <g id="分类更新成功-存在未分类商品" transform="translate(-540.000000, -290.000000)" fill="#FFFFFF">
            <g id="对话框/带图标/失败&amp;描述备份-3" transform="translate(540.000000, 290.000000)">
                <g id="Group-2">
                    <g>
                        <path d="M36,75 C60.300529,75 80,55.300529 80,31 C80,6.69947101 60.300529,-13 36,-13 C11.699471,-13 -8,6.69947101 -8,31 C-8,55.300529 11.699471,75 36,75 Z M14.8358081,28.8585369 L27.2,39.8 L57.9149306,10.8322906 C57.9149306,10.8322906 59.9714716,8.98479826 61.7844748,10.4363994 C62.3256698,10.8586834 62.9480441,12.0727497 61.5409371,13.9994202 L29.4480733,50.658946 C28.8642436,51.567985 27.8418729,52.12 26.7420982,52.12 C25.6423236,52.12 24.6199529,51.567985 24.0361232,50.658946 L10.2085908,32.395165 C10.2085908,32.395165 8.58500579,29.9142467 10.6415468,28.4362529 C11.9315079,27.4639791 13.7766782,27.6497534 14.8358081,28.8585369 Z" id="形状结合"></path>
                    </g>
                </g>
            </g>
        </g>
    </g>
</svg>
