<svg width="80px" height="75px" viewBox="0 0 80 75" version="1.1" xmlns="http://www.w3.org/2000/svg" xmlns:xlink="http://www.w3.org/1999/xlink">
    <g id="页面-1" stroke="none" stroke-width="1" fill="none" fill-rule="evenodd" opacity="0.159999996">
        <g id="分类更新中" transform="translate(-540.000000, -290.000000)" fill="#FFFFFF">
            <g id="对话框/带图标/失败&amp;描述备份-5" transform="translate(540.000000, 290.000000)">
                <g id="Group-2">
                    <g id="分组" transform="translate(-8.000000, -13.000000)">
                        <g id="编组-2">
                            <path d="M44,88 C19.699471,88 0,68.300529 0,44 C0,19.699471 19.699471,0 44,0 C68.300529,0 88,19.699471 88,44 C88,68.300529 68.300529,88 44,88 Z M47.5354614,68.5355524 C48.4614494,67.6101842 49,66.3092112 49,64.9998713 C49,63.691175 48.4613206,62.3898157 47.5354614,61.4644476 C46.6099885,60.5389507 45.3091775,60 44,60 C42.6912087,60 41.3900117,60.5389507 40.4645386,61.4644476 C39.5390655,62.3899445 39,63.691175 39,64.9998713 C39,66.3092112 39.5390655,67.6101843 40.4645386,68.5355524 C41.3901403,69.4614355 42.6912087,70 44,70 C45.3091775,70 46.6101171,69.4614354 47.5354614,68.5355524 Z M47,51.2105263 L48.9904467,23.6412371 C48.9964803,23.554471 49,23.4675287 49,23.3797937 C49,20.9608256 46.7615092,19 44,19 C41.2384908,19 39,20.9608255 39,23.3797937 C39,23.4675287 39.0038214,23.5545591 39.0085477,23.6412371 L41,51.2105263 C41,53.1003534 41.8425615,55 44,55 C46.1574385,55 47,53.1052632 47,51.2105263 Z" id="形状结合"></path>
                        </g>
                    </g>
                </g>
            </g>
        </g>
    </g>
</svg>
