<?xml version="1.0" encoding="UTF-8"?>
<svg width="1024px" height="1024px" viewBox="0 0 1024 1024" version="1.1" xmlns="http://www.w3.org/2000/svg" xmlns:xlink="http://www.w3.org/1999/xlink">
    <!-- Generator: Sketch 52.3 (67297) - http://www.bohemiancoding.com/sketch -->
    <title>顶导航/回收站</title>
    <desc>Created with Sketch.</desc>
    <g id="顶导航/回收站" stroke="none" stroke-width="1" fill="none" fill-rule="evenodd">
        <path d="M716.8,819.2 C716.499529,819.2 716.140833,819.277414 715.870626,819.397952 C715.763241,819.445856 715.76662,819.443448 715.849557,819.355976 C715.895923,819.307074 715.941263,819.255069 715.985418,819.2 L716.8,819.2 Z M716.8,816.4 L716.8,384.4 L768,384.4 L768,816.4 C768,846.223376 745.076979,870.4 716.8,870.4 L307.2,870.4 C278.923021,870.4 256,846.223376 256,816.4 L256,384.4 L307.2,384.4 L307.2,816.4 C307.2,817.655788 307.538363,818.606073 308.014582,819.2 L715.985418,819.2 C716.461637,818.606073 716.8,817.655788 716.8,816.4 Z M308.150443,819.355976 C308.23338,819.443448 308.236759,819.445856 308.129374,819.397952 C307.859167,819.277414 307.500471,819.2 307.2,819.2 L308.014582,819.2 C308.058737,819.255069 308.104077,819.307074 308.150443,819.355976 Z M308.014582,819.2 L307.2,819.2 C307.500471,819.2 307.859167,819.277414 308.129374,819.397952 C308.236759,819.445856 308.23338,819.443448 308.150443,819.355976 C308.104077,819.307074 308.058737,819.255069 308.014582,819.2 Z M308.014582,819.2 L715.985418,819.2 C716.461637,818.606073 716.8,817.655788 716.8,816.4 L716.8,384.4 L768,384.4 L768,816.4 C768,846.223376 745.076979,870.4 716.8,870.4 L307.2,870.4 C278.923021,870.4 256,846.223376 256,816.4 L256,384.4 L307.2,384.4 L307.2,816.4 C307.2,817.655788 307.538363,818.606073 308.014582,819.2 Z M716.8,819.2 C716.499529,819.2 716.140833,819.277414 715.870626,819.397952 C715.763241,819.445856 715.76662,819.443448 715.849557,819.355976 C715.895923,819.307074 715.941263,819.255069 715.985418,819.2 L716.8,819.2 Z" id="Path" fill="#404157" fill-rule="nonzero"></path>
        <circle id="Oval-Copy" fill="#404157" cx="742.5" cy="388.5" r="25.5"></circle>
        <circle id="Oval-Copy-2" fill="#404157" cx="281.5" cy="388.5" r="25.5"></circle>
        <rect id="Rectangle" fill="#3F4156" x="204.8" y="256" width="614.4" height="51.2" rx="25.6"></rect>
        <rect id="Rectangle-Copy" fill="#3F4156" transform="translate(435.200000, 563.200000) rotate(-270.000000) translate(-435.200000, -563.200000) " x="281.6" y="537.6" width="307.2" height="51.2" rx="25.6"></rect>
        <rect id="Rectangle-Copy-2" fill="#3F4156" transform="translate(588.800000, 563.200000) rotate(-270.000000) translate(-588.800000, -563.200000) " x="435.2" y="537.6" width="307.2" height="51.2" rx="25.6"></rect>
        <rect id="Rectangle" fill="#3F4156" transform="translate(512.000000, 230.400000) rotate(-90.000000) translate(-512.000000, -230.400000) " x="460.8" y="204.8" width="102.4" height="51.2" rx="25.6"></rect>
    </g>
</svg>