<?xml version="1.0" encoding="UTF-8"?>
<svg width="1024px" height="1024px" viewBox="0 0 1024 1024" version="1.1" xmlns="http://www.w3.org/2000/svg" xmlns:xlink="http://www.w3.org/1999/xlink">
    <!-- Generator: Sketch 55.2 (78181) - https://sketchapp.com -->
    <title>添加</title>
    <desc>Created with Sketch.</desc>
    <g id="添加" stroke="none" stroke-width="1" fill="none" fill-rule="evenodd">
        <g id="Group">
            <circle id="radio_normal" stroke="currentColor" stroke-width="64.0156288" cx="512.125031" cy="512.125031" r="480.117216"></circle>
            <path d="M480.117216,480.117216 L480.117216,288.07033 C480.117216,270.392902 494.447603,256.062515 512.125031,256.062515 C529.802458,256.062515 544.132845,270.392902 544.132845,288.07033 L544.132845,480.117216 L736.179731,480.117216 C753.857159,480.117216 768.187546,494.447603 768.187546,512.125031 C768.187546,529.802458 753.857159,544.132845 736.179731,544.132845 L544.132845,544.132845 L544.132845,736.179731 C544.132845,753.857159 529.802458,768.187546 512.125031,768.187546 C494.447603,768.187546 480.117216,753.857159 480.117216,736.179731 L480.117216,544.132845 L288.07033,544.132845 C270.392902,544.132845 256.062515,529.802458 256.062515,512.125031 C256.062515,494.447603 270.392902,480.117216 288.07033,480.117216 L480.117216,480.117216 Z" id="Combined-Shape" fill="currentColor" fill-rule="nonzero"></path>
        </g>
    </g>
</svg>