<?xml version="1.0" encoding="UTF-8"?>
<svg width="1024px" height="1024px" viewBox="0 0 1024 1024" version="1.1" xmlns="http://www.w3.org/2000/svg" xmlns:xlink="http://www.w3.org/1999/xlink">
    <!-- Generator: Sketch 55.2 (78181) - https://sketchapp.com -->
    <title>新建</title>
    <desc>Created with Sketch.</desc>
    <g id="切图" stroke="none" stroke-width="1" fill="none" fill-rule="evenodd">
        <g id="新建" fill="currentColor" fill-rule="nonzero">
            <path d="M548.571429,475.428571 L877.714286,475.428571 C897.912128,475.428571 914.285714,491.802158 914.285714,512 C914.285714,532.197842 897.912128,548.571429 877.714286,548.571429 L548.571429,548.571429 L548.571429,877.714286 C548.571429,897.912128 532.197842,914.285714 512,914.285714 C491.802158,914.285714 475.428571,897.912128 475.428571,877.714286 L475.428571,548.571429 L146.285714,548.571429 C126.087872,548.571429 109.714286,532.197842 109.714286,512 C109.714286,491.802158 126.087872,475.428571 146.285714,475.428571 L475.428571,475.428571 L475.428571,146.285714 C475.428571,126.087872 491.802158,109.714286 512,109.714286 C532.197842,109.714286 548.571429,126.087872 548.571429,146.285714 L548.571429,475.428571 Z" id="Combined-Shape"></path>
        </g>
    </g>
</svg>