<?xml version="1.0" encoding="UTF-8"?>
<svg width="34px" height="30px" viewBox="0 0 34 30" version="1.1" xmlns="http://www.w3.org/2000/svg" xmlns:xlink="http://www.w3.org/1999/xlink">
    <title>编组 7备份 5</title>
    <defs>
        <linearGradient x1="0%" y1="11.0726644%" x2="100%" y2="88.9273356%" id="linearGradient-1">
            <stop stop-color="#30F271" offset="0%"></stop>
            <stop stop-color="#00B377" offset="100%"></stop>
        </linearGradient>
    </defs>
    <g id="控件" stroke="none" stroke-width="1" fill="none" fill-rule="evenodd">
        <g id="1" transform="translate(-406.000000, -2.000000)">
            <g id="编组-7备份-5" transform="translate(406.000000, 2.000000)">
                <path d="M32.0003336,4 C33.1047189,4 34,4.89528114 34,5.99966639 L34,28 C34,29.1045695 33.1045695,30 32,30 L6,30 C4.9456382,30 4.08183488,29.1841222 4.00548574,28.1492623 L4,28 L30.0003336,28 C31.1049031,28 32.0003336,27.1045695 32.0003336,26 L32.0003336,4 Z M28,0 C29.1045695,-2.02906125e-16 30,0.8954305 30,2 L30,24 C30,25.1045695 29.1045695,26 28,26 L2,26 C0.8954305,26 1.3527075e-16,25.1045695 0,24 L0,2 C-1.3527075e-16,0.8954305 0.8954305,2.02906125e-16 2,0 L28,0 Z" id="形状结合" fill="url(#linearGradient-1)"></path>
                <g id="编组-7备份" transform="translate(15.000000, 13.000000) scale(1, -1) translate(-15.000000, -13.000000) translate(7.000000, 5.000000)" fill="#FFFFFF">
                    <path d="M0.530694602,6 L15.4693054,6 C15.7623999,6 16,6.23760007 16,6.5306946 L16,9.4693054 C16,9.76239993 15.7623999,10 15.4693054,10 L0.530694602,10 C0.237600066,10 3.58937285e-17,9.76239993 0,9.4693054 L0,6.5306946 C-3.58937285e-17,6.23760007 0.237600066,6 0.530694602,6 Z" id="矩形备份-81" transform="translate(8.000000, 8.000000) rotate(-90.000000) translate(-8.000000, -8.000000) "></path>
                    <rect id="矩形备份-80" transform="translate(8.000000, 8.000000) scale(1, -1) translate(-8.000000, -8.000000) " x="0" y="6" width="16" height="4" rx="0.530694602"></rect>
                </g>
            </g>
        </g>
    </g>
</svg>