<?xml version="1.0" encoding="UTF-8"?>
<svg width="16px" height="16px" viewBox="0 0 16 16" version="1.1" xmlns="http://www.w3.org/2000/svg" xmlns:xlink="http://www.w3.org/1999/xlink">
    <title>上传 copy 2</title>
    <g id="页面-1" stroke="none" stroke-width="1" fill="none" fill-rule="evenodd">
        <g id="6.提示" transform="translate(-1100.000000, -82.000000)" fill-rule="nonzero">
            <g id="上传-copy-2" transform="translate(1100.000000, 82.000000)">
                <rect id="Rectangle-path" fill="#000000" opacity="0" x="0" y="0" width="16" height="16"></rect>
                <g id="手册" transform="translate(2.000000, 1.000000)" fill="#FF6A00">
                    <path d="M11.1889328,12.9141042 L11.1889328,1.72107322 L12.3649887,1.72107322 L12.3649887,14 L1.72105821,14 C0.774476195,14 3.101877e-16,13.0001466 3.101877e-16,12.0535601 L3.101877e-16,1.72105821 C3.101877e-16,0.774476195 0.774476195,-1.5509385e-16 1.72105821,-1.5509385e-16 L10.3284051,-1.5509385e-16 L10.3284051,10.3314665 L2.45251695,10.3314665 C1.73950712,10.3314665 1.20167643,10.9102752 1.20167643,11.6222601 C1.20167643,12.3352699 1.73950712,12.9140787 2.45251695,12.9140787 L11.1909901,12.9140787 L11.1889328,12.9141042 Z M2.15132126,9.13084648 L9.12775365,9.13084648 L9.12775365,1.19962956 L1.72105671,1.19962956 L1.72105669,1.19962956 C1.43423717,1.20296934 1.20285442,1.43526363 1.20064097,1.72209366 L1.20064097,9.31830689 C1.49363114,9.19742299 1.81530462,9.13083448 2.15132125,9.13083448 L2.15132126,9.13084648 Z M2.45660471,11.1039228 L10.339666,11.1039228 L10.339666,12.1847059 L2.45660471,12.1847059 L2.54675543,12.1847059 L2.45558037,12.1847059 C2.22712988,12.1847059 2.04068241,11.9429387 2.04068241,11.6448268 C2.04068241,11.34569 2.31728105,11.1039228 2.54573154,11.1039228 L2.45660531,11.1039228 L2.45660471,11.1039228 Z" id="形状"></path>
                </g>
            </g>
        </g>
    </g>
</svg>