<?xml version="1.0" encoding="UTF-8"?>
<svg width="16px" height="16px" viewBox="0 0 16 16" version="1.1" xmlns="http://www.w3.org/2000/svg" xmlns:xlink="http://www.w3.org/1999/xlink">
    <!-- Generator: Sketch 56.3 (81716) - https://sketch.com -->
    <title>形状</title>
    <desc>Created with Sketch.</desc>
    <g id="页面-1" stroke="none" stroke-width="1" fill="none" fill-rule="evenodd">
        <g id="1-12" transform="translate(-230.000000, -96.000000)" fill="currentColor" fill-rule="nonzero">
            <g id="编组-15" transform="translate(210.000000, 80.000000)">
                <g id="形状">
                    <path d="M28,32 L28,32 C23.5817345,32 20,28.4182837 20,24 C20,19.5817346 23.5817158,16 28,16 C32.4182646,16 36,19.5817158 36,24 L36,23.9996388 C36.0015241,28.4165915 32.4221083,31.9984761 28.0051745,32 C28.0035742,32 28.001974,32 28.0003737,32 L28,32 Z M32.3571432,23.7142868 L28.2857126,23.7142868 L28.2857126,19.6428563 L28.2857126,19.6428563 C28.2857126,19.2878168 27.9978957,18.9999999 27.6428562,18.9999999 C27.2878166,18.9999999 26.9999998,19.2878168 26.9999998,19.6428563 L26.9999998,24.3571432 L26.9999998,24.3571433 C26.9999998,24.7121829 27.2878166,24.9999999 27.6428562,24.9999999 L32.3571432,24.9999999 L32.3571432,24.9999999 C32.7121827,24.9999999 32.9999998,24.7121829 32.9999998,24.3571433 C32.9999998,24.0021038 32.7121827,23.7142869 32.3571432,23.7142869 L32.3571432,23.7142868 Z"></path>
                </g>
            </g>
        </g>
    </g>
</svg>