<?xml version="1.0" encoding="UTF-8"?>
<svg width="1024px" height="1024px" viewBox="0 0 1024 1024" version="1.1" xmlns="http://www.w3.org/2000/svg" xmlns:xlink="http://www.w3.org/1999/xlink">
    <!-- Generator: Sketch 55.2 (78181) - https://sketchapp.com -->
    <title>画板</title>
    <desc>Created with Sketch.</desc>
    <g id="画板" stroke="none" stroke-width="1" fill="none" fill-rule="evenodd">
        <g id="处理进度" fill="currentColor">
            <g id="Group-2" transform="translate(128.000000, 128.000000)">
                <polygon id="Rectangle" points="352 192 416 192 416 448 352 448"></polygon>
                <rect id="Rectangle" transform="translate(432.000000, 416.000000) rotate(-270.000000) translate(-432.000000, -416.000000) " x="400" y="336" width="64" height="160"></rect>
                <path d="M666.557799,235.190744 L538.557799,235.190744 L538.557799,171.190744 L666.557799,171.190744 L666.557799,43.1907444 L730.557799,43.1907444 L730.557799,235.190744 L666.557799,235.190744 Z" id="Combined-Shape"></path>
                <path d="M695.731116,159.723727 C624.020108,60.2101361 509.022449,0 384,0 C171.922656,0 0,171.922656 0,384 C0,596.077344 171.922656,768 384,768 C596.077344,768 768,596.077344 768,384 L704,384 C704,560.73112 560.73112,704 384,704 C207.26888,704 64,560.73112 64,384 C64,207.26888 207.26888,64 384,64 C488.226232,64 584.000613,114.145269 643.808069,197.140264 L695.731116,159.723727 Z" id="Path" fill-rule="nonzero"></path>
            </g>
        </g>
    </g>
</svg>