<?xml version="1.0" encoding="UTF-8"?>
<svg width="1024px" height="1024px" viewBox="0 0 1024 1024" version="1.1" xmlns="http://www.w3.org/2000/svg" xmlns:xlink="http://www.w3.org/1999/xlink">
    <!-- Generator: Sketch 55.2 (78181) - https://sketchapp.com -->
    <title>进度</title>
    <desc>Created with Sketch.</desc>
    <g id="切图" stroke="none" stroke-width="1" fill="none" fill-rule="evenodd">
        <g id="进度" fill="currentColor">
            <g id="Group-2" transform="translate(128.000000, 128.000000)">
                <path d="M416,384 L512,384 L512,448 L416,448 L352,448 L352,192 L416,192 L416,384 Z M623.001653,171.190744 C563.018469,103.80803 476.864003,64 384,64 C207.26888,64 64,207.26888 64,384 C64,560.73112 207.26888,704 384,704 C560.73112,704 704,560.73112 704,384 L768,384 C768,596.077344 596.077344,768 384,768 C171.922656,768 0,596.077344 0,384 C0,171.922656 171.922656,0 384,0 C493.233361,0 594.814107,45.9625587 666.557799,123.943689 L666.557799,43.1907444 L730.557799,43.1907444 L730.557799,235.190744 L666.557799,235.190744 L538.557799,235.190744 L538.557799,171.190744 L623.001653,171.190744 Z" id="形状结合"></path>
            </g>
        </g>
    </g>
</svg>