<?xml version="1.0" encoding="UTF-8"?>
<svg width="16px" height="16px" viewBox="0 0 16 16" version="1.1" xmlns="http://www.w3.org/2000/svg" xmlns:xlink="http://www.w3.org/1999/xlink">
    <title>doubt</title>
    <g id="商品首页" stroke="none" stroke-width="1" fill="none" fill-rule="evenodd">
        <g id="闪购商品管理首页/其他操作大于3个" transform="translate(-310.000000, -102.000000)" fill="#666666" fill-rule="nonzero">
            <g id="商品新建" transform="translate(210.000000, 80.000000)">
                <g id="编组-16" transform="translate(24.000000, 20.000000)">
                    <path d="M84,2 C88.418278,2 92,5.581722 92,10 C92,14.418278 88.418278,18 84,18 C79.581722,18 76,14.418278 76,10 C76,5.581722 79.581722,2 84,2 Z M84,3.41176471 C80.3614181,3.41176471 77.4117647,6.36141812 77.4117647,10 C77.4117647,13.6385819 80.3614181,16.5882353 84,16.5882353 C87.6385819,16.5882353 90.5882353,13.6385819 90.5882353,10 C90.5882353,6.36141812 87.6385819,3.41176471 84,3.41176471 Z M83.7988252,12.7729779 C84.3186226,12.7729779 84.7400016,13.194357 84.7400016,13.7141544 C84.7400016,14.2339518 84.3186226,14.6553309 83.7988252,14.6553309 C83.2790277,14.6553309 82.8576487,14.2339518 82.8576487,13.7141544 C82.8576487,13.194357 83.2790277,12.7729779 83.7988252,12.7729779 Z M84.0423351,5.29411765 C85.7408645,5.29411765 86.7687083,6.53584559 86.7687083,7.70036765 C86.7687083,8.69117647 86.3842468,9.39246324 85.5349821,9.90073529 C84.7603498,10.3571078 84.5013383,10.6845752 84.4702463,11.2545338 L84.4669674,11.3805147 L84.4669674,11.5663002 C84.4669674,11.6916085 84.3798968,11.7965804 84.2629562,11.824015 L84.2022615,11.8310061 L83.3968124,11.8310061 C83.2725329,11.8310061 83.1680777,11.7453071 83.1397082,11.6295204 L83.1321244,11.5693773 L83.1287321,11.2775735 C83.096563,10.3511029 83.4890262,9.77205882 84.3704601,9.24448529 C85.1489527,8.77481618 85.4256071,8.40808824 85.4256071,7.75827206 C85.4256071,7.05055147 84.8529968,6.53584559 83.971563,6.53584559 C83.1833328,6.53584559 82.6914521,6.91771306 82.4959208,7.68144802 C82.4719358,7.77513243 82.3996063,7.84629026 82.309742,7.87103338 L82.2395375,7.88051471 L81.4494004,7.88051471 C81.4276717,7.88051471 81.4060257,7.87784084 81.3849502,7.8725534 C81.243071,7.83695856 81.1569105,7.69308741 81.1926513,7.55124482 C81.5701652,6.04649337 82.5200598,5.29411765 84.0423351,5.29411765 Z" id="doubt"></path>
                </g>
            </g>
        </g>
    </g>
</svg>