<?xml version="1.0" encoding="UTF-8"?>
<svg width="1024px" height="1024px" viewBox="0 0 1024 1024" version="1.1" xmlns="http://www.w3.org/2000/svg" xmlns:xlink="http://www.w3.org/1999/xlink">
    <!-- Generator: Sketch 52.3 (67297) - http://www.bohemiancoding.com/sketch -->
    <title>顶导航/下载商品</title>
    <desc>Created with Sketch.</desc>
    <g id="顶导航/下载商品" stroke="none" stroke-width="1" fill="none" fill-rule="evenodd">
        <path d="M363.432844,307.2 L256,307.2 C227.723021,307.2 204.8,330.123021 204.8,358.4 L204.8,819.2 C204.8,847.476979 227.723021,870.4 256,870.4 L819.2,870.4 C847.476979,870.4 870.4,847.476979 870.4,819.2 L870.4,358.4 C870.4,330.123021 847.476979,307.2 819.2,307.2 L729.569614,307.2 L729.569614,358.4 L819.2,358.4 L819.2,819.2 L256,819.2 L256,358.4 L363.432844,358.4 L363.432844,307.2 Z" id="Path" fill="#404157" fill-rule="nonzero"></path>
        <circle id="Oval" fill="#404157" cx="361.5" cy="332.5" r="25.5"></circle>
        <circle id="Oval-Copy" fill="#404157" cx="727.5" cy="332.5" r="25.5"></circle>
        <rect id="Rectangle" fill="#3F4156" x="512" y="153.6" width="51.2" height="409.6" rx="25.6"></rect>
        <path d="M537.6,656.815469 L388.486465,494.261934 C376.436205,481.125552 376.436205,460.954448 388.486465,447.818066 L388.486465,447.818066 C399.278484,436.053333 417.564345,435.264793 429.329078,446.056813 C429.941195,446.61832 430.528825,447.20595 431.090332,447.818066 L537.6,563.927734 L644.109668,447.818066 C654.901688,436.053333 673.187549,435.264793 684.952282,446.056813 C685.564399,446.61832 686.152028,447.20595 686.713535,447.818066 L686.713535,447.818066 C698.763795,460.954448 698.763795,481.125552 686.713535,494.261934 L537.6,656.815469 Z" id="Path" fill="#3F4156"></path>
    </g>
</svg>