<?xml version="1.0" encoding="utf-8"?>
<!-- Generator: Adobe Illustrator 22.0.1, SVG Export Plug-In . SVG Version: 6.00 Build 0)  -->
<svg version="1.1" id="图层_1" xmlns="http://www.w3.org/2000/svg" xmlns:xlink="http://www.w3.org/1999/xlink" x="0px" y="0px"
	 viewBox="0 0 200 200" style="enable-background:new 0 0 200 200;" xml:space="preserve">
<path d="M30,90h140c5.5,0,10,4.5,10,10s-4.5,10-10,10H30c-5.5,0-10-4.5-10-10C20,94.5,24.5,90,30,90z M102.4,34.1L67.1,69.5
	c-3.9,3.9-10.2,3.9-14.1,0c-3.9-3.9-3.9-10.2,0-14.2l0,0l36.8-36.8c7-7,18.4-7,25.5,0c0,0,0,0,0,0l36.8,36.8
	c3.8,4,3.7,10.3-0.2,14.1c-3.9,3.7-10,3.7-13.9,0C137.8,69.5,102.4,34.1,102.4,34.1z M67.1,135.3l35.3,35.4l35.4-35.4
	c4-3.8,10.3-3.7,14.1,0.2c3.7,3.9,3.7,10,0,13.9l-36.8,36.8c-7,7-18.4,7-25.5,0c0,0,0,0,0,0l-36.8-36.8c-3.9-3.9-3.9-10.2,0-14.1
	C56.8,131.4,63.2,131.4,67.1,135.3L67.1,135.3z"/>
</svg>
