<?xml version="1.0" encoding="UTF-8"?>
<svg width="1024px" height="1024px" viewBox="0 0 1024 1024" version="1.1" xmlns="http://www.w3.org/2000/svg" xmlns:xlink="http://www.w3.org/1999/xlink">
    <!-- Generator: Sketch 55.2 (78181) - https://sketchapp.com -->
    <title>拖拽</title>
    <desc>Created with Sketch.</desc>
    <g id="切图" stroke="none" stroke-width="1" fill="none" fill-rule="evenodd">
        <g id="拖拽" fill="#F89800" fill-rule="nonzero">
            <g id="Group-20">
                <path d="M512,1024 C794.769792,1024 1024,794.769792 1024,512 C1024,229.230208 794.769792,0 512,0 C229.230208,0 0,229.230208 0,512 C0,794.769792 229.230208,1024 512,1024 Z M512,960 C264.576432,960 64,759.423568 64,512 C64,264.576432 264.576432,64 512,64 C759.423568,64 960,264.576432 960,512 C960,759.423568 759.423568,960 512,960 Z" id="radio_normal" fill-opacity="0.3"></path>
                <path d="M288,480 L736,480 C753.673112,480 768,494.326888 768,512 C768,529.673112 753.673112,544 736,544 L288,544 C270.326888,544 256,529.673112 256,512 C256,494.326888 270.326888,480 288,480 Z M632.901587,414.391919 L519.764502,301.254834 L406.627417,414.391919 C394.13064,426.888696 373.86936,426.888696 361.372583,414.391919 C348.875806,401.895142 348.875806,381.633862 361.372583,369.137085 L479.035151,251.474517 C501.529351,228.980317 537.999653,228.980317 560.493853,251.474517 L678.156421,369.137085 C690.653198,381.633862 690.653198,401.895142 678.156421,414.391919 C665.659644,426.888696 645.398364,426.888696 632.901587,414.391919 Z M632.901587,625.137085 C645.398364,612.640308 665.659644,612.640308 678.156421,625.137085 C690.653198,637.633862 690.653198,657.895142 678.156421,670.391919 L560.493853,788.054487 C537.999653,810.548687 501.529351,810.548687 479.035151,788.054487 L361.372583,670.391919 C348.875806,657.895142 348.875806,637.633862 361.372583,625.137085 C373.86936,612.640308 394.13064,612.640308 406.627417,625.137085 L519.764502,738.27417 L632.901587,625.137085 Z" id="形状结合"></path>
            </g>
        </g>
    </g>
</svg>