<?xml version="1.0" encoding="UTF-8"?>
<svg width="1024px" height="1024px" viewBox="0 0 1024 1024" version="1.1" xmlns="http://www.w3.org/2000/svg" xmlns:xlink="http://www.w3.org/1999/xlink">
    <!-- Generator: Sketch 52.3 (67297) - http://www.bohemiancoding.com/sketch -->
    <title>列表/编辑</title>
    <desc>Created with Sketch.</desc>
    <g id="列表/编辑" stroke="none" stroke-width="1" fill="none" fill-rule="evenodd">
        <path d="M511.287995,204.8 L511.287995,256 L281.6,256 C267.46151,256 256,267.46151 256,281.6 L256,742.4 C256,756.53849 267.46151,768 281.6,768 L742.4,768 C756.53849,768 768,756.53849 768,742.4 L768,521.757947 L819.2,521.757947 L819.2,742.4 C819.2,784.815469 784.815469,819.2 742.4,819.2 L281.6,819.2 C239.184531,819.2 204.8,784.815469 204.8,742.4 L204.8,281.6 C204.8,239.184531 239.184531,204.8 281.6,204.8 L511.287995,204.8 Z" id="Path" fill="currentColor" fill-rule="nonzero"></path>
        <rect id="Rectangle" fill="currentColor" transform="translate(641.819336, 385.819336) rotate(-315.000000) translate(-641.819336, -385.819336) " x="616.219336" y="155.419336" width="51.2" height="460.8"></rect>
    </g>
</svg>