<?xml version="1.0" encoding="UTF-8"?>
<svg width="126px" height="126px" viewBox="0 0 126 126" version="1.1" xmlns="http://www.w3.org/2000/svg" xmlns:xlink="http://www.w3.org/1999/xlink">
    <title>icon/无数据</title>
    <defs>
        <linearGradient x1="24.5903246%" y1="7.65753903%" x2="81.6047563%" y2="100%" id="linearGradient-1">
            <stop stop-color="#FFFFFF" offset="0%"></stop>
            <stop stop-color="#D8D8D8" offset="100%"></stop>
        </linearGradient>
        <linearGradient x1="0%" y1="24.9211142%" x2="100%" y2="75.0788858%" id="linearGradient-2">
            <stop stop-color="#D4D4D4" offset="0%"></stop>
            <stop stop-color="#B4B4B4" offset="100%"></stop>
        </linearGradient>
        <linearGradient x1="8.63212589%" y1="45.4354578%" x2="86.5085741%" y2="40.4182223%" id="linearGradient-3">
            <stop stop-color="#F2F2F2" offset="0%"></stop>
            <stop stop-color="#D8D8D8" offset="100%"></stop>
        </linearGradient>
        <linearGradient x1="0%" y1="14.5455792%" x2="81.1277763%" y2="62.2943978%" id="linearGradient-4">
            <stop stop-color="#F2F2F2" offset="0%"></stop>
            <stop stop-color="#D8D8D8" offset="100%"></stop>
        </linearGradient>
        <linearGradient x1="50%" y1="22.8243722%" x2="57.7894284%" y2="69.9183734%" id="linearGradient-5">
            <stop stop-color="#EEEEEE" stop-opacity="0" offset="0%"></stop>
            <stop stop-color="#BFBFBF" stop-opacity="0.803840691" offset="100%"></stop>
        </linearGradient>
        <linearGradient x1="0%" y1="24.4879622%" x2="100%" y2="75.5120378%" id="linearGradient-6">
            <stop stop-color="#D4D4D4" offset="0%"></stop>
            <stop stop-color="#B4B4B4" offset="100%"></stop>
        </linearGradient>
        <linearGradient x1="29.5850959%" y1="91.7894057%" x2="70.7119674%" y2="50%" id="linearGradient-7">
            <stop stop-color="#F2F2F2" offset="0%"></stop>
            <stop stop-color="#D8D8D8" offset="100%"></stop>
        </linearGradient>
        <linearGradient x1="0%" y1="28.0377401%" x2="100%" y2="71.9622599%" id="linearGradient-8">
            <stop stop-color="#D4D4D4" offset="0%"></stop>
            <stop stop-color="#B4B4B4" offset="100%"></stop>
        </linearGradient>
        <linearGradient x1="0%" y1="39.4965278%" x2="100%" y2="60.5034722%" id="linearGradient-9">
            <stop stop-color="#D4D4D4" offset="0%"></stop>
            <stop stop-color="#B4B4B4" offset="100%"></stop>
        </linearGradient>
        <linearGradient x1="0%" y1="37.5%" x2="100%" y2="62.5%" id="linearGradient-10">
            <stop stop-color="#D4D4D4" offset="0%"></stop>
            <stop stop-color="#B4B4B4" offset="100%"></stop>
        </linearGradient>
        <linearGradient x1="0%" y1="37.5%" x2="100%" y2="62.5%" id="linearGradient-11">
            <stop stop-color="#D4D4D4" offset="0%"></stop>
            <stop stop-color="#B4B4B4" offset="100%"></stop>
        </linearGradient>
    </defs>
    <g id="页面-1" stroke="none" stroke-width="1" fill="none" fill-rule="evenodd">
        <g id="5.连锁总部首页-商品为空态" transform="translate(-863.000000, -374.000000)">
            <g id="编组" transform="translate(791.000000, 374.000000)">
                <g id="icon/无数据" transform="translate(72.000000, 0.000000)">
                    <rect id="Rectangle" fill-opacity="0" fill="#FFFFFF" x="0" y="0" width="126" height="126"></rect>
                    <ellipse id="Oval" fill="#E8E8E8" opacity="0.5" cx="63" cy="107.1" rx="39.375" ry="8.4"></ellipse>
                    <g id="Group-18" transform="translate(13.650000, 17.325000)">
                        <g id="Group-13" transform="translate(25.199875, 0.000000)">
                            <path d="M29.6483701,11.8743061 C31.303716,8.3565696 32.1313889,5.97692433 32.1313889,4.73537028 C32.1313889,2.8730392 32.1313889,0.700319603 29.6483701,0.0795425762 C27.1653512,-0.541234451 26.2342191,2.56031649 24.6823323,6.28614575 C23.1304455,10.011975 22.1993135,13.8283994 18.1644078,15.9552379 C14.1295021,18.0820764 8.23233232,19.0132419 6.37006817,21.49635 C4.50780402,23.9794581 4.19742666,28.0145088 7.30120025,31.739171 C10.4049738,35.4638331 14.5794138,37.0157757 17.6335347,37.0157757 C19.6696154,37.0157757 21.6053781,36.7053872 23.4408229,36.0846101 C22.3463106,39.1884953 21.1048012,42.7062318 19.7162946,46.6378196 C18.946524,48.8174424 17.5822825,53.9761978 14.8981132,55.2491554 C13.4597693,55.9312848 10.562914,55.5174335 6.20754717,54.0076014 C3.7245283,52.972973 1.96572327,52.972973 0.931132075,54.0076014 C-0.103459119,55.0422297 -0.103459119,56.4654922 0.931132075,58.2773889 C0.310377358,59.4154801 0.827672956,62.2341939 2.48301887,66.7335304 C4.96603774,73.4825351 9.1634644,73.4825351 8.23233232,77.5971284 C7.61157761,80.3401905 8.33579144,82.2290358 10.4049738,83.2636642 C8.33579144,83.6775155 6.99082289,84.6086811 6.37006817,86.0571608 C5.4389361,88.2298804 5.12855874,89.4714345 7.30120025,90.0922115 C9.47384176,90.7129885 21.5785587,90.0922115 23.4408229,90.0922115 C25.303087,90.0922115 26.8549738,89.781823 26.8549738,87.9194919 C26.8549738,86.6779378 26.8549738,85.7467723 26.8549738,85.1259953 L31.2002569,85.1259953 C29.1310745,86.1606237 28.0964833,87.0917892 28.0964833,87.9194919 C28.0964833,89.161046 25.9238418,91.3337655 29.6483701,91.3337655 C33.3728984,91.3337655 45.167238,91.3337655 46.7191248,91.3337655 C48.2710116,91.3337655 50.1332757,91.023377 50.1332757,90.0922115 C50.1332757,89.4714345 49.8228984,88.7471946 49.2021436,87.9194919 C49.8228984,85.6433095 50.4436531,84.0913669 51.0644078,83.2636642 C51.6851625,82.4359615 52.2024581,81.8151845 52.6162946,81.4013331 C57.7175723,79.3320764 60.8551559,75.710877 62.0290453,70.5377351 C63.7898795,62.7780223 62.5483701,50.0520933 66.2728984,46.6378196 C69.9974267,43.223546 73.2510392,40.8298036 72.7105537,39.6987609 C72.1700682,38.5677183 61.617238,40.1196608 57.5823323,49.4313162 C53.5474267,58.7429716 52.9266719,61.8468568 50.1332757,61.8468568 C47.3398795,61.8468568 45.9376429,56.570252 44.8568606,53.7767554 C44.1363391,51.9144243 43.2052071,47.1037134 42.0634644,39.3446226 C40.8953802,34.1434237 40.4999,30.0753375 40.8770239,27.1403641 C41.4427097,22.7379041 40.0415914,21.49635 44.0814764,19.9444074 C48.1213614,18.3924649 56.0304455,14.9998176 56.0304455,12.8054716 C56.0304455,10.6111257 55.570418,9.7015865 51.8458897,9.7015865 C48.1213614,9.7015865 44.5464833,10.9431405 41.4427097,11.8743061 C39.3735273,12.4950831 37.8216405,13.1158601 36.7870493,13.7366372 C34.0971122,13.7366372 32.234848,13.4262487 31.2002569,12.8054716 C30.1656657,12.1846946 29.6483701,11.8743061 29.6483701,11.8743061 Z" id="Path-8" stroke="#B7B7B7" stroke-width="1.05" fill="url(#linearGradient-1)"></path>
                            <path d="M9.47384176,22.117127 C11.4857561,21.8067385 16.612521,23.9224372 16.9228984,25.5314007 C17.2332757,27.1403641 16.2272211,28.3248973 13.3160975,28.9456743 C10.4049738,29.5664514 8.54270968,29.2560628 7.61157761,27.7041203 C6.68044553,26.1521777 6.68044553,24.2898466 7.30120025,23.3586811 C7.92195497,22.4275155 7.46192746,22.4275155 9.47384176,22.117127 Z" id="Path-16" fill="url(#linearGradient-2)"></path>
                            <path d="M9.03228692,23.058906 C9.65005033,22.9512459 11.2242366,23.6850886 11.3195387,24.2431672 C11.4148409,24.8012458 11.1059292,25.2121082 10.2120613,25.4274284 C9.31819339,25.6427487 8.74638044,25.5350885 8.46047396,24.996788 C8.17456749,24.4584874 8.17456749,23.8125268 8.3651718,23.4895464 C8.55577612,23.1665661 8.4145235,23.1665661 9.03228692,23.058906 Z" id="Path-16" fill="#FFFFFF" opacity="0.322753906"></path>
                            <path d="M21.7264151,40.0401182 C17.5978267,38.5916385 13.0997992,39.2124155 8.23233232,41.9024493 C3.36486549,44.5924831 0.931132075,48.6275338 0.931132075,54.0076014 L3.41415094,53.0764358 L5.58679245,54.0076014 C7.29142382,50.2829392 9.41233577,48.0067568 11.9495283,47.1790541 C14.4867208,46.3513514 16.7899083,46.4774467 18.8590907,47.5573401" id="Path-19" stroke="#B7B7B7" stroke-width="1.05" fill="url(#linearGradient-3)" stroke-linecap="round"></path>
                        </g>
                        <path d="M32.648932,54.0076014 C36.5629404,55.5238236 39.3563367,56.4549892 41.0291207,56.801098 C46.5867969,57.9510136 51.3196061,58.042652 52.675604,58.042652 C54.2226026,58.042652 56.3952441,57.9657034 59.1935285,57.8118061 C55.7180454,58.7694632 51.8358843,59.0533375 47.5470452,58.6634291 C44.1328943,58.3530405 41.9933,57.7821568 38.6010878,57.1114865 C37.0210348,56.7990961 34.6231464,55.9713934 31.4074226,54.6283784 L32.648932,54.0076014 Z" id="Path-9" fill="#B7B7B7"></path>
                        <path d="M31.4074226,52.7660473 C32.2350956,54.214527 32.3385547,55.0422297 31.7178,55.2491554 C30.7866679,55.5595439 30.1659132,55.7684341 29.2347811,54.0076014 C28.6140264,52.8337128 28.303649,52.2467686 28.303649,52.2467686" id="Path-20" stroke="#B7B7B7" stroke-width="1.05" fill="url(#linearGradient-4)" stroke-linecap="round"></path>
                        <path d="M26.5125,57.8515774 C28.4916405,60.2338591 31.4666405,61.425 35.4375,61.425 C39.4083595,61.425 41.3333595,61.425 41.2125,61.425 C38.4125,61.775 35.875,61.95 33.6,61.95 C31.325,61.95 28.8353358,61.0879162 26.1310075,59.3637487 L26.5125,57.8515774 Z" id="Path-12" fill="#B7B7B7"></path>
                        <path d="M51.7444719,84.8156068 C47.987365,84.3255497 45.2432542,83.6782585 43.5121396,82.8737331 C39.361322,80.9446649 36.1904893,77.3575503 34.1538684,75.1935628 C32.5395052,73.4782403 29.9242217,70.360937 28.6125,67.725 C27.6936192,65.8784864 26.866455,62.9143714 26.1310075,58.8326549 C28.8242892,60.6630096 31.3387637,61.7021247 33.6744312,61.95 C36.3554791,62.2345292 39.6475217,61.0660108 42.1767293,61.1625 C50.8184747,61.4921824 56.8656983,61.95 59.1935285,62.7375 C62.1020055,63.7214316 62.1020055,64.8730302 59.1935285,66.192296 C55.6759185,68.4684784 53.7101952,70.9515865 53.2963587,73.6416203 C52.8825222,76.3316541 54.0723021,80.0563162 56.8656983,84.8156068 L51.7444719,84.8156068 Z" id="Path-13" fill="url(#linearGradient-5)"></path>
                        <path d="M61.0557927,65.5715189 C55.8828367,68.4684784 53.5032769,71.9862149 53.9171134,76.1247284 C54.3309499,80.2632419 55.8828367,83.1602014 58.5727738,84.8156068 L55.7793776,84.8156068 C53.7101952,82.1488246 52.675604,79.2518652 52.675604,76.1247284 C52.675604,71.4340232 53.9171134,70.2273466 55.7793776,68.3650155 C57.020887,67.1234615 58.779692,66.192296 61.0557927,65.5715189 Z" id="Path-11" fill="#B7B7B7"></path>
                        <path d="M52.0548493,85.7467723 C49.2663413,85.6698237 45.6452721,84.3248068 41.1916417,81.7117216 C36.7380114,79.0986365 32.9593094,75.1405345 29.8555358,69.8374155 C34.9299209,75.4774372 39.0190002,79.2286135 42.1227738,81.0909446 C45.2265474,82.9532757 48.4337801,84.1948297 51.7444719,84.8156068 L52.0548493,85.7467723 Z" id="Path-14" fill="#B7B7B7"></path>
                        <path d="M51.7444719,32.359948 C51.9513901,31.1183939 52.5721449,30.4976169 53.6067361,30.4976169 C55.1586229,30.4976169 56.7105096,31.4287824 56.4001323,32.0495595 C56.0897549,32.6703365 55.7793776,32.0495595 55.1586229,31.739171 C54.5378681,31.4287824 54.2274908,31.2947322 53.2963587,31.4287824 C52.675604,31.5181493 52.1583084,31.8285378 51.7444719,32.359948 Z" id="Path-15" fill="#B7B7B7"></path>
                        <g id="Group-12" transform="translate(42.581008, 17.381757)">
                            <path d="M3.98039786,4.88667364 C5.69456468,4.88667364 6.66578088,3.71552103 6.66578088,2.58614701 C6.66578088,1.45677299 5.27617412,0.541234451 3.5620073,0.541234451 C1.84784048,0.541234451 0.458233714,1.45677299 0.458233714,2.58614701 C0.458233714,3.71552103 2.26623104,4.88667364 3.98039786,4.88667364 Z" id="Oval" fill="#FFFFFF"></path>
                            <ellipse id="Oval" fill="url(#linearGradient-6)" cx="4.65566038" cy="3.41427365" rx="2.17264151" ry="1.55194257"></ellipse>
                            <ellipse id="Oval" fill="#FFFFFF" cx="4.65566038" cy="4.34543919" rx="1" ry="1"></ellipse>
                        </g>
                        <g id="Group-12" transform="translate(51.892328, 19.864865)">
                            <path d="M3.98039786,4.88667364 C5.69456468,4.88667364 6.66578088,3.71552103 6.66578088,2.58614701 C6.66578088,1.45677299 5.27617412,0.541234451 3.5620073,0.541234451 C1.84784048,0.541234451 0.458233714,1.45677299 0.458233714,2.58614701 C0.458233714,3.71552103 2.26623104,4.88667364 3.98039786,4.88667364 Z" id="Oval" fill="#FFFFFF"></path>
                            <ellipse id="Oval" fill="url(#linearGradient-6)" cx="4.03490566" cy="3.41427365" rx="2.17264151" ry="1.55194257"></ellipse>
                            <ellipse id="Oval" fill="#FFFFFF" cx="3.41415094" cy="4.34543919" rx="1" ry="1"></ellipse>
                        </g>
                        <path d="M41.6498754,56.801098 C43.3867494,51.8345962 44.5789733,48.8990911 45.2265474,47.9945825 C46.1979085,46.6378196 46.7784342,46.3274311 48.9510757,46.9482081 C51.1237172,47.5689851 53.3363072,49.1209277 54.0922763,53.1559784 C54.5962558,55.8460122 54.5962558,57.3979547 54.0922763,57.8118061 C50.8126656,57.8648345 48.5274628,57.8648345 47.2366679,57.8118061 C45.945873,57.7587777 44.0836089,57.421875 41.6498754,56.801098 Z" id="Path-17" fill="#FFFFFF" opacity="0.629255022"></path>
                        <g id="Group-17" transform="translate(60.893272, 4.345439)" stroke="#B7B7B7" stroke-linecap="round" stroke-linejoin="round" stroke-width="1.05">
                            <line x1="0.531728338" y1="4.57956081" x2="0.531728338" y2="19.2440878" id="Path-205"></line>
                            <line x1="3.68172834" y1="0.379560811" x2="3.68172834" y2="18.2333797" id="Path-205"></line>
                            <line x1="6.83172834" y1="5.62956081" x2="6.83172834" y2="14.0295608" id="Path-205"></line>
                            <line x1="9.98172834" y1="3.52956081" x2="9.98172834" y2="20.8545608" id="Path-205"></line>
                        </g>
                        <path d="M3.10377358,55.5460963 C3.36834012,56.6862854 3.57525835,57.5139881 3.7245283,58.0292044 M4.96603774,60.7599675 C6.7378968,64.9295794 9.24234901,66.7196687 12.4793944,66.1302354 C19.0540093,64.9330643 14.7123587,57.3871197 10.2833093,60.7460194 C5.85425983,64.1049191 11.2211868,68.9660597 18.4371656,73.3697611 C21.4464471,75.2062379 24.8189642,76.5074149 28.554717,77.2732922" id="Path-206" stroke="#B7B7B7" stroke-width="1.05" stroke-linecap="round" stroke-linejoin="round" transform="translate(15.829245, 66.409694) rotate(18.000000) translate(-15.829245, -66.409694) "></path>
                        <path d="M61.203649,39.5297593 C66.1696868,36.3250053 68.963083,33.2476343 69.5838377,30.2976465 C70.5149698,25.8726647 67.7215735,19.8161978 70.8253471,19.2749634 C73.9291207,18.7337289 76.1017622,25.4109729 76.1017622,31.228812 C76.1017622,37.0466512 74.5498754,39.5297593 70.5149698,43.4543919 C67.8250327,46.0708136 65.4454729,47.5192933 63.3762905,47.7998311" id="Path-18" stroke="#B7B7B7" stroke-width="1.05" fill="url(#linearGradient-7)" stroke-linecap="round"></path>
                    </g>
                    <g id="Group-20" transform="translate(63.025000, 27.600000) scale(-1, 1) translate(-63.025000, -27.600000) translate(20.525000, 12.600000)">
                        <circle id="Oval" stroke="#B7B7B7" stroke-width="1.05" fill="#FFFFFF" opacity="0.338030134" cx="4.2" cy="24.675" r="4.2"></circle>
                        <circle id="Oval" stroke="#B7B7B7" stroke-width="1.05" fill="#FFFFFF" opacity="0.338030134" cx="71.925" cy="18.375" r="2.1"></circle>
                        <path d="M14.7,2.66453526e-15 C15.1349242,2.69566327e-15 15.4875,0.35257576 15.4875,0.7875 L15.487,2.887 L17.5875,2.8875 C18.0224242,2.8875 18.375,3.24007576 18.375,3.675 C18.375,4.10992424 18.0224242,4.4625 17.5875,4.4625 L15.487,4.462 L15.4875,6.5625 C15.4875,6.99742424 15.1349242,7.35 14.7,7.35 C14.2650758,7.35 13.9125,6.99742424 13.9125,6.5625 L13.912,4.462 L11.8125,4.4625 C11.3775758,4.4625 11.025,4.10992424 11.025,3.675 C11.025,3.24007576 11.3775758,2.8875 11.8125,2.8875 L13.912,2.887 L13.9125,0.7875 C13.9125,0.35257576 14.2650758,2.52238494e-15 14.7,2.66453526e-15 Z" id="Combined-Shape" fill="#B7B7B7" opacity="0.433221726"></path>
                        <path d="M81.9,24.15 C82.1899495,24.15 82.425,24.3850505 82.425,24.675 L82.425,26.25 L84,26.25 C84.2899495,26.25 84.525,26.4850505 84.525,26.775 C84.525,27.0649495 84.2899495,27.3 84,27.3 L82.425,27.3 L82.425,28.875 C82.425,29.1649495 82.1899495,29.4 81.9,29.4 C81.6100505,29.4 81.375,29.1649495 81.375,28.875 L81.375,27.3 L79.8,27.3 C79.5100505,27.3 79.275,27.0649495 79.275,26.775 C79.275,26.4850505 79.5100505,26.25 79.8,26.25 L81.374,26.25 L81.375,24.675 C81.375,24.3850505 81.6100505,24.15 81.9,24.15 Z" id="Combined-Shape" fill="#B7B7B7" opacity="0.412458147"></path>
                    </g>
                    <polygon id="Path-2" fill="url(#linearGradient-8)" opacity="0.4" transform="translate(32.317540, 55.068299) rotate(20.000000) translate(-32.317540, -55.068299) " points="38.9671437 57.3534609 30.8938167 50.0807989 24.7921437 52.8395104 39.8429371 60.0557989"></polygon>
                    <polygon id="Path-5" fill="url(#linearGradient-9)" opacity="0.603445871" transform="translate(28.606853, 63.215506) rotate(20.000000) translate(-28.606853, -63.215506) " points="34.906853 60.3280058 22.306853 62.1815855 26.7778208 66.1030058"></polygon>
                    <polygon id="Path-2" fill="url(#linearGradient-8)" opacity="0.4" transform="translate(32.317540, 55.068299) rotate(20.000000) translate(-32.317540, -55.068299) " points="38.9671437 57.3534609 30.8938167 50.0807989 24.7921437 52.8395104 39.8429371 60.0557989"></polygon>
                    <polygon id="Path-5" fill="url(#linearGradient-9)" opacity="0.603445871" transform="translate(28.606853, 63.215506) rotate(20.000000) translate(-28.606853, -63.215506) " points="34.906853 60.3280058 22.306853 62.1815855 26.7778208 66.1030058"></polygon>
                    <polygon id="Path-2" fill="url(#linearGradient-10)" opacity="0.603445871" transform="translate(75.468750, 72.203822) rotate(-30.000000) translate(-75.468750, -72.203822) " points="71.26875 71.0592758 76.738951 74.3038217 79.66875 72.9466718 72.075093 70.1038217"></polygon>
                    <polygon id="Path-5" fill="url(#linearGradient-11)" opacity="0.603445871" transform="translate(73.823413, 68.304015) rotate(-30.000000) translate(-73.823413, -68.304015) " points="70.6734133 69.879015 76.9734133 68.5817534 74.6262538 66.729015"></polygon>
                </g>
            </g>
        </g>
    </g>
</svg>