<?xml version="1.0" encoding="UTF-8"?>
<svg width="50px" height="50px" viewBox="0 0 50 50" version="1.1" xmlns="http://www.w3.org/2000/svg" xmlns:xlink="http://www.w3.org/1999/xlink">
    <title>fail</title>
    <g id="页面-1" stroke="none" stroke-width="1" fill="none" fill-rule="evenodd">
        <g id="处理结果页/部分失败" transform="translate(-790.000000, -350.000000)" fill="#FF192D" fill-rule="nonzero">
            <g id="编组-4" transform="translate(672.000000, 350.000000)">
                <path d="M143,0 C156.807119,0 168,11.1928813 168,25 C168,38.8071187 156.807119,50 143,50 C129.192881,50 118,38.8071187 118,25 C118,11.1928813 129.192881,0 143,0 Z M137.608311,16.9566604 C137.413049,16.7613982 137.096466,16.7613982 136.901204,16.9566604 L136.901204,16.9566604 L134.95666,18.901204 C134.761398,19.0964662 134.761398,19.4130486 134.95666,19.6083108 L134.95666,19.6083108 L140.34835,25 L134.95666,30.3916892 C134.761398,30.5869514 134.761398,30.9035338 134.95666,31.098796 L134.95666,31.098796 L136.901204,33.0433396 C137.096466,33.2386018 137.413049,33.2386018 137.608311,33.0433396 L137.608311,33.0433396 L143,27.6516504 L148.391689,33.0433396 C148.586951,33.2386018 148.903534,33.2386018 149.098796,33.0433396 L149.098796,33.0433396 L151.04334,31.098796 C151.238602,30.9035338 151.238602,30.5869514 151.04334,30.3916892 L151.04334,30.3916892 L145.65165,25 L151.04334,19.6083108 C151.238602,19.4130486 151.238602,19.0964662 151.04334,18.901204 L151.04334,18.901204 L149.098796,16.9566604 C148.903534,16.7613982 148.586951,16.7613982 148.391689,16.9566604 L148.391689,16.9566604 L143,22.3483496 Z" id="fail"></path>
            </g>
        </g>
    </g>
</svg>