<svg height="13" viewBox="0 0 14 13" width="14" xmlns="http://www.w3.org/2000/svg"><g fill="none" transform="translate(0 -1)"><path d="m0 0h14v14h-14z" fill="#000" opacity="0"/><path d="m11.8636875 3.2357496c1.3444039.98882867 2.1376912 2.55867 2.1363143 4.2275625 0 1.728125-.8351893 3.2615625-2.1240643 4.218375l-.51975-.7039375c1.1136417-.8246295 1.7699895-2.128721 1.7688125-3.5144375.0010564-1.39119318-.6605182-2.69972005-1.7815-3.523625zm-1.2998125 1.759625c.785691.57668064 1.2494566 1.49332467 1.2486261 2.4679375.0007786.96919749-.4579153 1.88139128-1.2363761 2.45875l-.5201875-.7039375c.5550394-.4124339.882021-1.06331392.8815625-1.7548125.0005103-.69691415-.3315432-1.35224427-.8938125-1.764zm-9.688875-1.0320625h2.73c.2141798-.00005608.4209006-.07866603.581-.2209375l2.961-2.632c.12880939-.11438507.31275308-.14253376.46987501-.07190443.15712192.07062932.25812501.22688778.25812501.39915443v11.9695625c0 .1769232-.1066308.3364086-.27008865.4041091s-.35160138.0302881-.47672387-.0947966l-2.9343125-2.9343125c-.16405614-.1641057-.38657954-.2563254-.618625-.256375h-2.70025c-.48324916 0-.875-.3917508-.875-.875v-4.8125c0-.48324916.39175084-.875.875-.875z" fill="currentColor"/></g></svg>