<?xml version="1.0" encoding="UTF-8"?>
<svg width="14px" height="13px" viewBox="0 0 14 13" version="1.1" xmlns="http://www.w3.org/2000/svg" xmlns:xlink="http://www.w3.org/1999/xlink">
    <!-- Generator: Sketch 61 (89581) - https://sketch.com -->
    <title>形状</title>
    <desc>Created with Sketch.</desc>
    <defs>
        <rect id="path-1" x="0" y="0" width="560" height="74" rx="2"></rect>
    </defs>
    <g id="控件" stroke="none" stroke-width="1" fill="none" fill-rule="evenodd">
        <g id="提示条/可操作/警告" transform="translate(-20.000000, -45.000000)">
            <g id="bg">
                <use fill="#FFFFFF" fill-rule="evenodd" xlink:href="#path-1"></use>
                <rect stroke="#FFE190" stroke-width="1" stroke-linejoin="square" fill-opacity="0.1" fill="#FFD356" fill-rule="evenodd" x="0.5" y="0.5" width="559" height="73" rx="2"></rect>
                <rect stroke="#FFFFFF" stroke-width="0.5" x="-0.25" y="-0.25" width="560.5" height="74.5" rx="2"></rect>
            </g>
            <g id="通知" transform="translate(20.000000, 44.000000)" fill-rule="nonzero">
                <rect id="矩形" fill="#000000" opacity="0" x="0" y="0" width="14" height="14"></rect>
                <path d="M11.8636875,3.2357496 C13.2080914,4.22457827 14.0013787,5.7944196 14.0000018,7.4633121 C14.0000018,9.1914371 13.1648125,10.7248746 11.8759375,11.6816871 L11.3561875,10.9777496 C12.4698292,10.1531201 13.126177,8.8490286 13.125,7.4633121 C13.1260564,6.07211892 12.4644818,4.76359205 11.3435,3.9396871 L11.8636875,3.2357496 L11.8636875,3.2357496 Z M10.563875,4.9953746 C11.349566,5.57205524 11.8133316,6.48869927 11.8125011,7.4633121 C11.8132797,8.43250959 11.3545858,9.34470338 10.576125,9.9220621 L10.0559375,9.2181246 C10.6109769,8.8056907 10.9379585,8.15481068 10.9375,7.4633121 C10.9380103,6.76639795 10.6059568,6.11106783 10.0436875,5.6993121 L10.563875,4.9953746 L10.563875,4.9953746 Z M0.875,3.9633121 L3.605,3.9633121 C3.8191798,3.96325602 4.0259006,3.88464607 4.186,3.7423746 L7.147,1.1103746 C7.27580939,0.995989532 7.45975308,0.967840839 7.61687501,1.03847017 C7.77399693,1.10909949 7.87500002,1.26535795 7.87500002,1.4376246 L7.87500002,13.4071871 C7.87500002,13.5841103 7.76836922,13.7435957 7.60491137,13.8112962 C7.44145352,13.8789967 7.25330999,13.8415843 7.1281875,13.7164996 L4.193875,10.7821871 C4.02981886,10.6180814 3.80729546,10.5258617 3.57525,10.5258121 L0.875,10.5258121 C0.391750844,10.5258121 0,10.1340613 0,9.6508121 L0,4.8383121 C0,4.35506294 0.391750844,3.9633121 0.875,3.9633121 Z" id="形状" fill="#F89800"></path>
            </g>
        </g>
    </g>
</svg>