<?xml version="1.0" encoding="UTF-8"?>
<svg width="1024px" height="1024px" viewBox="0 0 1024 1024" version="1.1" xmlns="http://www.w3.org/2000/svg" xmlns:xlink="http://www.w3.org/1999/xlink">
    <!-- Generator: Sketch 52.3 (67297) - http://www.bohemiancoding.com/sketch -->
    <title>顶导航/购物袋设置</title>
    <desc>Created with Sketch.</desc>
    <g id="顶导航/购物袋设置" stroke="none" stroke-width="1" fill="none" fill-rule="evenodd">
        <path d="M256,204.8 L256,819.2 L768,819.2 L768,204.8 L256,204.8 Z M256,153.6 L768,153.6 C796.276979,153.6 819.2,176.523021 819.2,204.8 L819.2,819.2 C819.2,847.476979 796.276979,870.4 768,870.4 L256,870.4 C227.723021,870.4 204.8,847.476979 204.8,819.2 L204.8,204.8 C204.8,176.523021 227.723021,153.6 256,153.6 Z" id="Rectangle" fill="currentColor" fill-rule="nonzero"></path>
        <path d="M614.4,307.2 L665.6,307.2 C665.6,392.030938 596.830938,460.8 512,460.8 C427.169062,460.8 358.4,392.030938 358.4,307.2 L409.6,307.2 C409.6,363.753958 455.446042,409.6 512,409.6 C568.553958,409.6 614.4,363.753958 614.4,307.2 Z M614.4,307.2 L665.6,307.2 C665.6,392.030938 596.830938,460.8 512,460.8 C427.169062,460.8 358.4,392.030938 358.4,307.2 L409.6,307.2 C409.6,363.753958 455.446042,409.6 512,409.6 C568.553958,409.6 614.4,363.753958 614.4,307.2 Z" id="Path" fill="currentColor" fill-rule="nonzero"></path>
        <circle id="Oval-Copy" fill="currentColor" cx="383.5" cy="307.5" r="25.5"></circle>
        <circle id="Oval-Copy-2" fill="currentColor" cx="640.5" cy="307.5" r="25.5"></circle>
    </g>
</svg>