<?xml version="1.0" encoding="UTF-8"?>
<svg width="1024px" height="1024px" viewBox="0 0 1024 1024" version="1.1" xmlns="http://www.w3.org/2000/svg" xmlns:xlink="http://www.w3.org/1999/xlink">
    <!-- Generator: Sketch 55.2 (78181) - https://sketchapp.com -->
    <title>画板</title>
    <desc>Created with Sketch.</desc>
    <g id="画板" stroke="none" stroke-width="1" fill="none" fill-rule="evenodd">
        <path d="M73.1428571,73.1428571 L950.857143,73.1428571 C991.252827,73.1428571 1024,105.89003 1024,146.285714 L1024,877.714286 C1024,918.10997 991.252827,950.857143 950.857143,950.857143 L73.1428571,950.857143 C32.7471726,950.857143 -2.34746649e-14,918.10997 0,877.714286 L0,146.285714 C-4.94704458e-15,105.89003 32.7471726,73.1428571 73.1428571,73.1428571 Z M877.714286,401.030781 C877.714286,397.151043 876.173066,393.430209 873.429676,390.686819 C867.716864,384.974007 858.454565,384.974007 852.741752,390.686819 L678.973638,564.454933 C667.548013,575.880558 649.023415,575.880558 637.59779,564.454933 L532.687924,459.545067 C521.262299,448.119442 502.737701,448.119442 491.312076,459.545067 L171.258248,779.598895 C168.514858,782.342284 166.973638,786.063119 166.973638,789.942857 C166.973638,798.021994 173.523073,804.571429 181.60221,804.571429 L848.457143,804.571429 C864.615417,804.571429 877.714286,791.47256 877.714286,775.314286 L877.714286,401.030781 Z M256,438.857143 C316.593527,438.857143 365.714286,389.736384 365.714286,329.142857 C365.714286,268.54933 316.593527,219.428571 256,219.428571 C195.406473,219.428571 146.285714,268.54933 146.285714,329.142857 C146.285714,389.736384 195.406473,438.857143 256,438.857143 Z" id="Combined-Shape" fill="#585A6E"></path>
    </g>
</svg>