<?xml version="1.0" encoding="utf-8"?>
<!-- Generator: Adobe Illustrator 22.0.1, SVG Export Plug-In . SVG Version: 6.00 Build 0)  -->
<svg version="1.1" id="图层_1" xmlns="http://www.w3.org/2000/svg" xmlns:xlink="http://www.w3.org/1999/xlink" x="0px" y="0px"
	 viewBox="0 0 260 200" style="enable-background:new 0 0 260 200;" xml:space="preserve">
<path d="M98,83l48-83H10C4,0,0,4,0,10v180c0,6,4,10,10,10h104l32-67L98,83z M108,190H10v-34l47-26c5-3,10-2,15,0l50,30L108,190
	L108,190z M77,122c-8-5-17-5-25,0l-42,23V10h119L85,85l49,50l-8,16L77,122z"/>
<path d="M250,0h-71l-49,83l49,50l-33,67h104c6,0,10-4,10-10V10C260,4,256,0,250,0z M250,190h-88l29-59l-16-16l13-15c6-6,15-7,21-1
	l2,2l39,48V190z M250,133l-31-38l-3-3c-10-9-26-8-35,2l-13,14l-26-26l42-72h66V133L250,133z M55,35c-11,0-20,9-20,20s9,20,20,20
	s20-9,20-20S66,35,55,35z M55,65c-6,0-10-4-10-10s4-10,10-10s10,4,10,10S61,65,55,65z"/>
</svg>
