<?xml version="1.0" encoding="utf-8"?>
<!-- Generator: Adobe Illustrator 22.0.1, SVG Export Plug-In . SVG Version: 6.00 Build 0)  -->
<svg version="1.1" id="图层_1" xmlns="http://www.w3.org/2000/svg" xmlns:xlink="http://www.w3.org/1999/xlink" x="0px" y="0px"
	 viewBox="0 0 200 200" style="enable-background:new 0 0 200 200;" xml:space="preserve">
<path d="M87.5,87.5v-75C87.5,5.6,93.1,0,100,0c6.9,0,12.5,5.6,12.5,12.5v75h75c6.9,0,12.5,5.6,12.5,12.5c0,6.9-5.6,12.5-12.5,12.5
	h-75v75c0,6.9-5.6,12.5-12.5,12.5c-6.9,0-12.5-5.6-12.5-12.5v-75h-75C5.6,112.5,0,106.9,0,100c0-6.9,5.6-12.5,12.5-12.5H87.5z"/>
</svg>
