<?xml version="1.0" encoding="UTF-8"?>
<svg width="14px" height="14px" viewBox="0 0 14 14" version="1.1" xmlns="http://www.w3.org/2000/svg" xmlns:xlink="http://www.w3.org/1999/xlink">
    <!-- Generator: Sketch 52.5 (67469) - http://www.bohemiancoding.com/sketch -->
    <title>icon_illustration_normal</title>
    <desc>Created with Sketch.</desc>
    <g id="Page-1" stroke="none" stroke-width="1" fill="none" fill-rule="evenodd">
        <g id="商超、生鲜、母婴、药品类业务（有商品库）布局-有【售卖信息】模块-" transform="translate(-776.000000, -473.000000)">
            <g id="基本信息" transform="translate(235.000000, 316.000000)">
                <g id="商品类目" transform="translate(20.000000, 146.000000)">
                    <g id="icon_illustration_normal" transform="translate(520.000000, 10.000000)">
                        <rect id="Rectangle" x="0" y="0" width="16" height="16"></rect>
                        <circle id="Oval-10" stroke="#BABCCC" cx="8" cy="8" r="6.5"></circle>
                        <path d="M8.006,3.81459526 C8.774,3.81459526 9.398,4.01859526 9.878,4.45059526 C10.358,4.87059526 10.598,5.44659526 10.598,6.16659526 C10.598,6.75459526 10.442,7.24659526 10.142,7.63059526 C10.034,7.76259526 9.698,8.07459526 9.134,8.56659526 C8.906,8.75859526 8.738,8.97459526 8.63,9.19059526 C8.498,9.43059526 8.438,9.69459526 8.438,9.98259526 L8.438,10.1865953 L7.154,10.1865953 L7.154,9.98259526 C7.154,9.53859526 7.226,9.15459526 7.394,8.84259526 C7.55,8.50659526 8.006,8.01459526 8.75,7.35459526 L8.954,7.12659526 C9.17,6.85059526 9.29,6.56259526 9.29,6.25059526 C9.29,5.83059526 9.17,5.50659526 8.942,5.26659526 C8.702,5.02659526 8.354,4.90659526 7.922,4.90659526 C7.382,4.90659526 6.986,5.07459526 6.746,5.42259526 C6.53,5.71059526 6.422,6.11859526 6.422,6.64659526 L5.162,6.64659526 C5.162,5.77059526 5.414,5.08659526 5.918,4.58259526 C6.422,4.06659526 7.118,3.81459526 8.006,3.81459526 Z M7.79,10.8345953 C8.042,10.8345953 8.258,10.9065953 8.426,11.0745953 C8.594,11.2305953 8.678,11.4345953 8.678,11.6865953 C8.678,11.9385953 8.582,12.1425953 8.414,12.3105953 C8.246,12.4665953 8.03,12.5505953 7.79,12.5505953 C7.55,12.5505953 7.334,12.4665953 7.166,12.2985953 C6.998,12.1305953 6.914,11.9265953 6.914,11.6865953 C6.914,11.4345953 6.998,11.2305953 7.166,11.0745953 C7.334,10.9065953 7.55,10.8345953 7.79,10.8345953 Z" id="？" fill="#BABCCC"></path>
                    </g>
                </g>
            </g>
        </g>
    </g>
</svg>