<?xml version="1.0" encoding="UTF-8"?>
<svg width="1024px" height="1024px" viewBox="0 0 1024 1024" version="1.1" xmlns="http://www.w3.org/2000/svg" xmlns:xlink="http://www.w3.org/1999/xlink">
    <!-- Generator: Sketch 55.2 (78181) - https://sketchapp.com -->
    <title>设置</title>
    <desc>Created with Sketch.</desc>
    <g id="切图" stroke="none" stroke-width="1" fill="none" fill-rule="evenodd">
        <g id="设置" fill="currentColor" fill-rule="nonzero">
            <path d="M850.202727,723.732115 C885.357873,660.370345 949.703488,627.091772 1010.41216,634.625477 C1019.29413,595.017611 1024,553.722342 1024,511.273053 C1024,473.82575 1020.33844,437.276838 1013.37985,401.991328 C951.905813,410.518055 886.389298,376.929779 850.996221,312.540574 C815.032345,247.115331 820.900913,169.411255 860.430234,117.900628 C806.136314,65.0024722 740.874139,24.3167823 668.618205,0 C646.203488,62.3527704 584.553641,107.143284 512,107.143284 C439.446361,107.143284 377.795341,62.3515405 355.381796,0 C283.804493,24.088189 219.094364,64.2441845 165.107527,116.418466 C204.443456,168.096235 210.014318,245.828577 173.797273,311.105114 C138.152201,375.350528 72.4950359,408.661053 11.0491292,399.863947 C3.81509676,435.806967 0,473.07238 0,511.273053 C0,552.967743 4.53357648,593.552656 13.1108042,632.514073 C73.8569845,625.222479 138.088908,658.775116 173.004952,722.295426 C207.315033,784.714563 203.557369,858.313814 168.81362,909.676961 C223.152079,961.17284 288.07201,1000.62462 359.747767,1024 C385.10087,967.359571 443.723254,927.691485 512,927.691485 C580.276747,927.691485 638.899132,967.359571 664.252234,1024 C735.259909,1000.84215 799.633655,961.906547 853.661514,911.113649 C819.125221,859.60548 815.654714,785.998855 850.202727,723.732115 Z M512,682.666667 C417.743465,682.666667 341.333333,606.256535 341.333333,512 C341.333333,417.743465 417.743465,341.333333 512,341.333333 C606.256535,341.333333 682.666667,417.743465 682.666667,512 C682.666667,606.256535 606.256535,682.666667 512,682.666667 Z" id="Shape"></path>
        </g>
    </g>
</svg>