<?xml version="1.0" encoding="utf-8"?>
<!-- Generator: Adobe Illustrator 22.0.1, SVG Export Plug-In . SVG Version: 6.00 Build 0)  -->
<svg version="1.1" id="图层_1" xmlns="http://www.w3.org/2000/svg" xmlns:xlink="http://www.w3.org/1999/xlink" x="0px" y="0px"
	 viewBox="0 0 200 200" style="enable-background:new 0 0 200 200;" xml:space="preserve">
<path d="M166.1,141.3c6.9-12.4,19.4-18.9,31.3-17.4c3.4-14.9,3.6-30.4,0.6-45.4c-12,1.7-24.8-4.9-31.7-17.5c-7-12.8-5.9-28,1.8-38
	c-10.6-10.4-23.4-18.3-37.5-23c-4.4,12.2-16.4,20.9-30.6,20.9S73.8,12.2,69.4,0C55.5,4.7,42.8,12.5,32.3,22.7
	C39.9,32.8,41,48,34,60.8c-7,12.5-19.8,19-31.8,17.3c-3,15-2.9,30.5,0.4,45.4c11.9-1.4,24.4,5.1,31.2,17.5c6.7,12.2,6,26.6-0.8,36.6
	c10.6,10.1,23.4,17.7,37.3,22.3c5.3-11.6,17-18.9,29.7-18.8c13.3,0,24.8,7.8,29.7,18.8c13.8-4.5,26.4-12.1,37-22.1
	C160,167.9,159.3,153.5,166.1,141.3L166.1,141.3z M100,145.4c-24,0-43.5-20.4-43.5-45.6c0-25.2,19.5-45.6,43.5-45.6
	c24,0,43.5,20.4,43.5,45.6C143.5,125,124,145.4,100,145.4z"/>
</svg>
