<svg width="256" height="256" xmlns="http://www.w3.org/2000/svg"><defs><style/></defs><path d="M160.125 71.525a41 41 0 0 1-20.575-33.1 92.4 92.4 0 0 0-27.7.8 40.975 40.975 0 0 1-20.525 32.3A41.475 41.475 0 0 1 55.4 74.1a89.775 89.775 0 0 0-13.275 25.175 40.875 40.875 0 0 1 1.525 61.6 90.075 90.075 0 0 0 15.175 25.3 41.45 41.45 0 0 1 32.5 3.775A40.975 40.975 0 0 1 111 216.625a91.925 91.925 0 0 0 29.275.85 40.975 40.975 0 0 1 19.85-27.525 41.5 41.5 0 0 1 36.4-2.4 90.25 90.25 0 0 0 15.075-23.575 40.925 40.925 0 0 1-17.05-33.25 40.95 40.95 0 0 1 18.8-34.4A89.95 89.95 0 0 0 199.825 72.4a41.525 41.525 0 0 1-39.7-.875zm47.4-15.45a106.325 106.325 0 0 1 23.8 41.95l.025.15a8 8 0 0 1-4.675 9.675l-.175.075a24.625 24.625 0 0 0-15.45 22.8 24.6 24.6 0 0 0 14.3 22.325l.175.075a8 8 0 0 1 4.175 9.9l-.075.15a106.6 106.6 0 0 1-25.475 40.275l-.175.175a8 8 0 0 1-9.85 1.1l-.2-.1a24.9 24.9 0 0 0-25.525-.475A24.575 24.575 0 0 0 156 224.8v.15a8 8 0 0 1-6.425 7.625l-.2.025a108.5 108.5 0 0 1-21.1 2.075c-9.075 0-18.025-1.125-26.675-3.325l-.175-.05a8 8 0 0 1-6-7.225l-.025-.15a24.575 24.575 0 0 0-12.325-19.775 24.875 24.875 0 0 0-23.075-.9l-.175.1a8 8 0 0 1-9.2-1.7l-.15-.15a106.475 106.475 0 0 1-24.45-40.925l-.05-.1a8 8 0 0 1 3.225-9.15l.125-.075a24.55 24.55 0 0 0-1.025-41.675l-.15-.075a8 8 0 0 1-3.65-8.975l.05-.125a106.2 106.2 0 0 1 22.325-41.95l.15-.175a8 8 0 0 1 10.275-1.55l.225.125c7.725 4.8 17.525 5.075 25.55.45a24.575 24.575 0 0 0 12.25-23.825V33.3a8 8 0 0 1 5.975-8.575l.2-.05a108.175 108.175 0 0 1 26.775-3.35c7.25 0 14.425.725 21.425 2.125l.2.05a8 8 0 0 1 6.35 8.95l-.025.175A24.575 24.575 0 0 0 168.4 57.3a24.9 24.9 0 0 0 27.875-2.1l.225-.175a8 8 0 0 1 10.85.85l.175.2zM90.675 128a37.325 37.325 0 1 1 74.65 0 37.325 37.325 0 0 1-74.65 0zm16 0a21.325 21.325 0 1 0 42.65 0 21.325 21.325 0 0 0-42.65 0z"/></svg>