<?xml version="1.0" encoding="UTF-8"?>
<svg width="50px" height="50px" viewBox="0 0 50 50" version="1.1" xmlns="http://www.w3.org/2000/svg" xmlns:xlink="http://www.w3.org/1999/xlink">
    <title>success</title>
    <g id="页面-1" stroke="none" stroke-width="1" fill="none" fill-rule="evenodd">
        <g id="处理结果页/全部成功" transform="translate(-790.000000, -350.000000)" fill="#00BF7F" fill-rule="nonzero">
            <g id="同步模块" transform="translate(210.000000, 109.000000)">
                <g id="编组-9" transform="translate(430.000000, 241.000000)">
                    <path d="M175,0 C188.807119,0 200,11.1928813 200,25 C200,38.8071187 188.807119,50 175,50 C161.192881,50 150,38.8071187 150,25 C150,11.1928813 161.192881,0 175,0 Z M184.192388,17.5502525 C183.997126,17.3549904 183.680544,17.3549904 183.485281,17.5502525 L183.485281,17.5502525 L172.34835,28.6871843 L166.514719,22.8535534 C166.319456,22.6582912 166.002874,22.6582912 165.807612,22.8535534 L165.807612,22.8535534 L163.863068,24.798097 C163.667806,24.9933592 163.667806,25.3099417 163.863068,25.5052038 L163.863068,25.5052038 L171.994796,33.6369318 C172.190058,33.8321939 172.506641,33.8321939 172.701903,33.6369318 L172.701903,33.6369318 L186.136932,20.201903 C186.332194,20.0066408 186.332194,19.6900583 186.136932,19.4947962 L186.136932,19.4947962 Z" id="success"></path>
                </g>
            </g>
        </g>
    </g>
</svg>