<?xml version="1.0" encoding="UTF-8"?>
<svg width="16px" height="16px" viewBox="0 0 16 16" version="1.1" xmlns="http://www.w3.org/2000/svg" xmlns:xlink="http://www.w3.org/1999/xlink">
    <title>编组 2</title>
    <g id="页面-1" stroke="none" stroke-width="1" fill="none" fill-rule="evenodd">
        <g id="6.提示" transform="translate(-1272.000000, -82.000000)" fill-rule="nonzero">
            <g id="编组-2" transform="translate(1272.000000, 82.000000)">
                <rect id="Rectangle-path" fill="#000000" opacity="0" x="0" y="0" width="16" height="16"></rect>
                <path d="M14.914621,5.87702867 C15.0284419,5.59247668 14.9715314,5.25101383 14.7438896,5.05182697 L11.9268181,2.23475556 C11.6138107,1.92174815 11.1300719,1.92174815 10.8170633,2.23475556 C10.5040559,2.54776298 10.5040559,3.03150183 10.8170633,3.34451041 L12.2967318,4.8241789 L1.76829199,4.8241789 C1.56910514,4.8241789 1.36991828,4.88108941 1.22764229,5.02336575 C1.08536629,5.16564175 1,5.3648286 1,5.59247089 C1,6.01930003 1.34146285,6.36076288 1.76829199,6.36076288 L14.2032202,6.36076288 C14.5162276,6.36076288 14.8007807,6.16157603 14.9146013,5.87702404 L14.914621,5.87702867 Z M14.2032398,9.46239438 L1.76831167,9.46239438 C1.56912481,9.46239438 1.36993796,9.54776009 1.22766196,9.69003666 C1.17075145,9.77540238 1.08538597,9.86076809 1.05693054,9.94613438 C1.02847534,10.0315001 1.00002002,10.1453212 1.00002002,10.2306864 L1.00002002,10.2591416 C1.00002002,10.3729625 1.02847522,10.4583284 1.05693054,10.5436936 C1.08538574,10.6575145 1.17075145,10.714425 1.22766196,10.7997913 L4.04473337,13.6168627 C4.35774079,13.9298701 4.84147963,13.9298701 5.15448821,13.6168627 C5.46749563,13.3038553 5.46749563,12.8201164 5.15448821,12.5071078 L3.67481972,11.0274393 L14.231708,11.0274393 C14.6585371,11.0274393 15,10.6859765 15,10.2591474 C15,9.80386394 14.6300817,9.46239438 14.2032537,9.46239438 L14.2032398,9.46239438 Z" id="形状" fill="#FF6A00"></path>
            </g>
        </g>
    </g>
</svg>