<?xml version="1.0" encoding="utf-8"?>
<!-- Generator: Adobe Illustrator 22.0.1, SVG Export Plug-In . SVG Version: 6.00 Build 0)  -->
<svg version="1.1" id="图层_1" xmlns="http://www.w3.org/2000/svg" xmlns:xlink="http://www.w3.org/1999/xlink" x="0px" y="0px"
	 viewBox="0 0 1024 1024" style="enable-background:new 0 0 1024 1024;" xml:space="preserve">
<style type="text/css">
	.st0{fill:#404157;}
</style>
<title>下载商品icon</title>
<desc>Created with Sketch.</desc>
<g id="Path">
	<path class="st0" d="M716.8,819.2H153.6c-28.2,0-51.2-23-51.2-51.2V307.2c0-28.2,23-51.2,51.2-51.2h563.2c28.2,0,51.2,23,51.2,51.2
		v88l83.5-33.2c12.7-5,26.6-4.8,39.2,0.6c12.6,5.4,22.3,15.4,27.3,28.1c2.4,6,3.6,12.4,3.6,18.9v256c0,28.2-23,51.2-51.2,51.2
		c-6.5,0-12.9-1.2-18.9-3.6L768,680v88C768,796.2,745,819.2,716.8,819.2z M153.6,307.2V768h563.2l0-163.4l153.6,61v-256l-153.6,61
		V307.2H153.6z"/>
</g>
<circle id="Oval" class="st0" cx="256" cy="409.6" r="51.2"/>
</svg>
