<?xml version="1.0" encoding="UTF-8"?>
<svg width="1024px" height="1024px" viewBox="0 0 1024 1024" version="1.1" xmlns="http://www.w3.org/2000/svg" xmlns:xlink="http://www.w3.org/1999/xlink">
    <!-- Generator: Sketch 52.3 (67297) - http://www.bohemiancoding.com/sketch -->
    <title>顶导航/新建商品</title>
    <desc>Created with Sketch.</desc>
    <g id="顶导航/新建商品" stroke="none" stroke-width="1" fill="none" fill-rule="evenodd">
        <path d="M512,832 C688.73112,832 832,688.73112 832,512 C832,335.26888 688.73112,192 512,192 C335.26888,192 192,335.26888 192,512 C192,688.73112 335.26888,832 512,832 Z M512,896 C299.922656,896 128,724.077344 128,512 C128,299.922656 299.922656,128 512,128 C724.077344,128 896,299.922656 896,512 C896,724.077344 724.077344,896 512,896 Z" id="Oval-4" fill="currentColor" fill-rule="nonzero"></path>
        <rect id="Rectangle" fill="currentColor" x="480" y="320" width="64" height="384"></rect>
        <rect id="Rectangle" fill="currentColor" transform="translate(512.000000, 512.000000) rotate(-270.000000) translate(-512.000000, -512.000000) " x="480" y="320" width="64" height="384"></rect>
    </g>
</svg>