<?xml version="1.0" encoding="UTF-8"?>
<svg width="1024px" height="1024px" viewBox="0 0 1024 1024" version="1.1" xmlns="http://www.w3.org/2000/svg" xmlns:xlink="http://www.w3.org/1999/xlink">
    <!-- Generator: Sketch 52.3 (67297) - http://www.bohemiancoding.com/sketch -->
    <title>左导航/管理分类</title>
    <desc>Created with Sketch.</desc>
    <g id="左导航/管理分类" stroke="none" stroke-width="1" fill="none" fill-rule="evenodd">
        <path d="M544,82.4752086 L867.979381,269.524791 C887.78105,280.95729 899.979381,302.085419 899.979381,324.950417 L899.979381,699.049583 C899.979381,721.914581 887.78105,743.04271 867.979381,754.475209 L544,941.524791 C524.198331,952.95729 499.801669,952.95729 480,941.524791 L156.020619,754.475209 C136.21895,743.04271 124.020619,721.914581 124.020619,699.049583 L124.020619,324.950417 C124.020619,302.085419 136.21895,280.95729 156.020619,269.524791 L480,82.4752086 C499.801669,71.0427097 524.198331,71.0427097 544,82.4752086 Z M512,704 C618.038672,704 704,618.038672 704,512 C704,405.961328 618.038672,320 512,320 C405.961328,320 320,405.961328 320,512 C320,618.038672 405.961328,704 512,704 Z" id="Combined-Shape" fill="currentColor" transform="translate(512.000000, 512.000000) rotate(-30.000000) translate(-512.000000, -512.000000) "></path>
    </g>
</svg>