<?xml version="1.0" encoding="utf-8"?>
<!-- Generator: Adobe Illustrator 22.0.1, SVG Export Plug-In . SVG Version: 6.00 Build 0)  -->
<svg version="1.1" id="图层_1" xmlns="http://www.w3.org/2000/svg" xmlns:xlink="http://www.w3.org/1999/xlink" x="0px" y="0px"
	 viewBox="0 0 200 200" style="enable-background:new 0 0 200 200;" xml:space="preserve">
<g>
	<path d="M112.8,64.1c-7.1-7-18.5-7-25.5,0l-36.8,36.8c-3.9,4-3.9,10.3,0,14.2c4,3.9,10.3,3.9,14.2,0L90,89.8v87.7
		c0,5.5,4.5,10,10,10s10-4.5,10-10V89.6c10.3,10.3,25.5,25.4,25.5,25.4c3.9,3.7,10,3.7,13.9,0c3.9-3.8,4-10.1,0.2-14.1L112.8,64.1z"
		/>
	<path d="M170,27.5H30c-5.5,0-10,4.5-10,10s4.5,10,10,10h140c5.5,0,10-4.5,10-10S175.5,27.5,170,27.5z"/>
</g>
</svg>
