<?xml version="1.0" encoding="UTF-8"?>
<svg width="1024px" height="1024px" viewBox="0 0 1024 1024" version="1.1" xmlns="http://www.w3.org/2000/svg" xmlns:xlink="http://www.w3.org/1999/xlink">
    <!-- Generator: Sketch 52.5 (67469) - http://www.bohemiancoding.com/sketch -->
    <title>无条码商品icon/未选</title>
    <desc>Created with Sketch.</desc>
    <g id="无条码商品icon/未选" stroke="none" stroke-width="1" fill="none" fill-rule="evenodd">
        <path d="M73.1428571,73.1428571 L73.1428571,365.714286 L365.714286,365.714286 L365.714286,73.1428571 L73.1428571,73.1428571 Z M0,0 L438.857143,0 L438.857143,438.857143 L0,438.857143 L0,0 Z" id="Rectangle" fill="#585A6E" fill-rule="nonzero"></path>
        <path d="M73.1428571,658.285714 L73.1428571,950.857143 L365.714286,950.857143 L365.714286,658.285714 L73.1428571,658.285714 Z M0,585.142857 L438.857143,585.142857 L438.857143,1024 L0,1024 L0,585.142857 Z" id="Rectangle-Copy-2" fill="#585A6E" fill-rule="nonzero"></path>
        <path d="M658.285714,73.1428571 L658.285714,365.714286 L950.857143,365.714286 L950.857143,73.1428571 L658.285714,73.1428571 Z M585.142857,0 L1024,0 L1024,438.857143 L585.142857,438.857143 L585.142857,0 Z" id="Rectangle-Copy" fill="#585A6E" fill-rule="nonzero"></path>
        <path d="M658.285714,658.285714 L658.285714,950.857143 L950.857143,950.857143 L950.857143,658.285714 L658.285714,658.285714 Z M585.142857,585.142857 L1024,585.142857 L1024,1024 L585.142857,1024 L585.142857,585.142857 Z" id="Rectangle-Copy-3" fill="#585A6E" fill-rule="nonzero"></path>
    </g>
</svg>