<svg height="41" viewBox="0 0 64 41" width="64" xmlns="http://www.w3.org/2000/svg"><g fill="none" fill-rule="evenodd"><ellipse cx="32" cy="34" fill="#f5f5f5" rx="32" ry="7"/><g fill-rule="nonzero" stroke="#d9d9d9" transform="translate(0 1)"><path d="m55 12.76-10.146-11.502c-.487-.784-1.198-1.258-1.947-1.258h-21.814c-.749 0-1.46.474-1.947 1.257l-10.146 11.504v9.239h46z"/><path d="m41.613 15.931c0-1.605.994-2.93 2.227-2.931h11.16v18.137c0 2.123-1.32 3.863-2.95 3.863h-40.1c-1.63 0-2.95-1.741-2.95-3.863v-18.137h11.16c1.233 0 2.227 1.323 2.227 2.928v.022c0 1.605 1.005 2.901 2.237 2.901h14.752c1.232 0 2.237-1.308 2.237-2.913z" fill="#fafafa"/></g></g></svg>