<?xml version="1.0" encoding="UTF-8"?>
<svg width="202px" height="194px" viewBox="0 0 202 194" version="1.1" xmlns="http://www.w3.org/2000/svg" xmlns:xlink="http://www.w3.org/1999/xlink">
    <!-- Generator: Sketch 61 (89581) - https://sketch.com -->
    <title>页面 1</title>
    <desc>Created with Sketch.</desc>
    <defs>
        <linearGradient x1="0%" y1="14.8283039%" x2="100%" y2="85.1716961%" id="linearGradient-1">
            <stop stop-color="#D4D4D4" offset="0%"></stop>
            <stop stop-color="#B4B4B4" offset="100%"></stop>
        </linearGradient>
        <linearGradient x1="0%" y1="40.7055899%" x2="100%" y2="59.2944101%" id="linearGradient-2">
            <stop stop-color="#D4D4D4" stop-opacity="0.6" offset="0%"></stop>
            <stop stop-color="#B4B4B4" offset="100%"></stop>
        </linearGradient>
        <linearGradient x1="47.637051%" y1="0%" x2="52.362949%" y2="100%" id="linearGradient-3">
            <stop stop-color="#D4D4D4" stop-opacity="0.8" offset="0%"></stop>
            <stop stop-color="#B4B4B4" offset="100%"></stop>
        </linearGradient>
        <linearGradient x1="44.0656173%" y1="20.774977%" x2="50%" y2="100%" id="linearGradient-4">
            <stop stop-color="#EEEEEE" offset="0%"></stop>
            <stop stop-color="#DCDCDC" offset="100%"></stop>
        </linearGradient>
        <linearGradient x1="27.8440855%" y1="7.65753903%" x2="77.5577026%" y2="100%" id="linearGradient-5">
            <stop stop-color="#FFFFFF" offset="0%"></stop>
            <stop stop-color="#D8D8D8" offset="100%"></stop>
        </linearGradient>
        <linearGradient x1="0%" y1="24.9229168%" x2="100%" y2="75.0770832%" id="linearGradient-6">
            <stop stop-color="#D4D4D4" offset="0%"></stop>
            <stop stop-color="#B4B4B4" offset="100%"></stop>
        </linearGradient>
        <linearGradient x1="43.6790123%" y1="20.774977%" x2="50%" y2="100%" id="linearGradient-7">
            <stop stop-color="#EEEEEE" offset="0%"></stop>
            <stop stop-color="#DCDCDC" offset="100%"></stop>
        </linearGradient>
        <linearGradient x1="50%" y1="0%" x2="50%" y2="100%" id="linearGradient-8">
            <stop stop-color="#EEEEEE" stop-opacity="0" offset="0%"></stop>
            <stop stop-color="#BFBFBF" offset="100%"></stop>
        </linearGradient>
        <linearGradient x1="0%" y1="30.46875%" x2="100%" y2="69.53125%" id="linearGradient-9">
            <stop stop-color="#F2F2F2" offset="0%"></stop>
            <stop stop-color="#D8D8D8" offset="100%"></stop>
        </linearGradient>
    </defs>
    <g id="页面-1" stroke="none" stroke-width="1" fill="none" fill-rule="evenodd">
        <g id="【视觉稿】【S】-商家端PC-商品魔方一期(共87页)-闪购赋能与B端产品设计组-辛雪-2020_05_14" transform="translate(-2448.000000, -6510.000000)"></g>
        <g id="6-2" transform="translate(-714.000000, -309.000000)">
            <g id="Group-25" transform="translate(695.000000, 283.000000)">
                <g id="Group-15">
                    <ellipse id="Oval" fill="#E8E8E8" opacity="0.5" cx="120" cy="204" rx="75" ry="16"></ellipse>
                    <g id="Group-6" transform="translate(16.000000, 27.000000)">
                        <path d="M58.9872617,83 L58.0129027,159 L149,159 L149,83 L58.9872617,83 Z" id="Rectangle" stroke="#B7B7B7" stroke-width="2" fill="url(#linearGradient-1)"></path>
                        <path d="M208,83 L183.625595,74.7839083 C182.110053,74.2730515 180.47618,74.2281718 178.934879,74.6550626 L152.603967,81.9478809 C151.539472,82.2427118 150.915537,83.3446627 151.210367,84.4091572 C151.374825,85.0029363 151.803784,85.4877728 152.373102,85.7233524 L187.6,100.3 L187.6,100.3 L208,83 Z" id="Rectangle" stroke="#B7B7B7" stroke-width="2" fill-opacity="0.6" fill="url(#linearGradient-2)" transform="translate(177.500000, 87.150000) scale(-1, 1) translate(-177.500000, -87.150000) "></path>
                        <path d="M149,99.7080704 L149,171.81693 L167,156.29193 L167,84.1830704 L149,99.7080704 Z" id="Rectangle" stroke="#B7B7B7" stroke-width="2" fill="url(#linearGradient-3)" transform="translate(158.000000, 128.000000) scale(-1, 1) translate(-158.000000, -128.000000) "></path>
                        <g id="Group-23" transform="translate(47.000000, 11.500000)">
                            <rect id="Rectangle" fill="#D8D8D8" opacity="0.775181362" x="83" y="30.5" width="14" height="2" rx="1"></rect>
                            <rect id="Rectangle" fill="#D8D8D8" x="80" y="35.5" width="22" height="2" rx="1"></rect>
                            <rect id="Rectangle" fill="#D8D8D8" opacity="0.457798549" x="89" y="40.5" width="18" height="2" rx="1"></rect>
                            <rect id="Rectangle" fill="#D8D8D8" opacity="0.775181362" x="3" y="40.5" width="8" height="2" rx="1"></rect>
                            <rect id="Rectangle" fill="#D8D8D8" opacity="0.409388951" x="0" y="45.5" width="16" height="2" rx="1"></rect>
                            <rect id="Rectangle" fill="#D8D8D8" opacity="0.457798549" x="9" y="50.5" width="18" height="2" rx="1"></rect>
                            <rect id="Rectangle" fill="#D8D8D8" opacity="0.775181362" x="100" y="30.5" width="4" height="2" rx="1"></rect>
                            <path d="M108,30.5 C115.666667,27.8353068 119.5,22.8358002 119.5,15.5014801 C119.5,4.5 111,-5.68434189e-14 102,-5.68434189e-14 C93,-5.68434189e-14 88,8.5 88,15.25 C88,22 95,26.5 103.25,25.398646 C111.5,24.2972921 112,16.5 110.5,12.5 C109,8.5 103,7 100,8.5 C97,10 96,12.5029602 97,15.5014801 C98,18.5 104,19.5 105,16.5" id="Path-24" stroke="#B7B7B7" stroke-width="2" opacity="0.24874442" stroke-linecap="round"></path>
                        </g>
                        <g id="Group-14" transform="translate(49.741078, 0.000000)">
                            <g id="Group-13" transform="translate(8.000000, 0.000000)">
                                <path d="M15.2208727,57.9841524 C22.2208727,66.9841524 26.554206,75.8674858 28.2208727,84.6341524 C30.7208727,97.7841524 25.2208727,98.4841524 20.2208727,96.9456197 C16.8875394,95.9199311 16.554206,93.7661087 19.2208727,90.4841524 C17.8875394,91.6487298 17.2208727,91.6487298 17.2208727,90.4841524 C17.2208727,88.7372863 19.2208727,86.4841524 16.2208727,75.4841524" id="Path-23" stroke="#B7B7B7" stroke-width="2" fill="url(#linearGradient-4)" stroke-linecap="round" transform="translate(22.032491, 77.756012) scale(-1, 1) rotate(-12.000000) translate(-22.032491, -77.756012) "></path>
                                <path d="M38.261812,19.1281339 C41.9284786,13.4614672 43.761812,9.62813389 43.761812,7.62813389 C43.761812,4.62813389 43.761812,1.12813389 39.761812,0.128133891 C35.761812,-0.871866109 34.261812,4.12437378 31.761812,10.1262538 C29.261812,16.1281339 27.761812,22.2759522 21.261812,25.7020431 C14.761812,29.1281339 5.26181195,30.6281339 2.26181195,34.6281339 C-0.738188049,38.6281339 -1.23818805,45.1281339 3.76181195,51.1281339 C8.76181195,57.1281339 15.4865937,59.6281339 20.4066061,59.6281339 C23.6866144,59.6281339 26.8050163,59.1281339 29.761812,58.1281339 C27.9986158,63.1281339 25.9986158,68.7948006 23.761812,75.1281339 C21.5250081,81.4614672 19.6916747,86.2948006 18.261812,89.6281339 C14.261812,87.9614672 11.4284786,87.9614672 9.76181195,89.6281339 C8.09514528,91.2948006 7.76181195,93.2948006 8.76181195,95.6281339 C7.76181195,101.294801 7.26181195,105.294801 7.26181195,107.628134 C7.26181195,111.128134 3.76181195,114.128134 3.76181195,122.628134 C3.76181195,128.294801 5.42847862,132.128134 8.76181195,134.128134 C5.42847862,134.794801 3.26181195,136.294801 2.26181195,138.628134 C0.761811951,142.128134 0.261811951,144.128134 3.76181195,145.128134 C7.26181195,146.128134 26.761812,145.128134 29.761812,145.128134 C32.761812,145.128134 35.261812,144.628134 35.261812,141.628134 C35.261812,139.628134 35.261812,138.128134 35.261812,137.128134 L42.261812,137.128134 C38.9284786,138.794801 37.261812,140.294801 37.261812,141.628134 C37.261812,143.628134 33.761812,147.128134 39.761812,147.128134 C45.761812,147.128134 64.761812,147.128134 67.261812,147.128134 C69.761812,147.128134 72.761812,146.628134 72.761812,145.128134 C72.761812,144.128134 72.261812,142.961467 71.261812,141.628134 C72.261812,137.961467 73.261812,135.461467 74.261812,134.128134 C75.261812,132.794801 76.0951453,131.794801 76.761812,131.128134 C84.9796757,127.794801 90.0341417,121.961467 91.9252098,113.628134 C94.761812,101.128134 92.761812,80.6281339 98.761812,75.1281339 C104.761812,69.6281339 110.003194,65.7720917 109.132503,63.9501128 C108.261812,62.1281339 91.261812,64.6281339 84.761812,79.6281339 C78.261812,94.6281339 77.261812,99.6281339 72.761812,99.6281339 C68.261812,99.6281339 66.0028897,91.1281339 64.261812,86.6281339 C63.1010935,83.6281339 61.6010935,75.8786349 59.761812,63.379637 C57.8800958,55.001107 57.2430001,48.4478906 57.8505248,43.7199879 C58.761812,36.6281339 56.5046913,34.6281339 63.0127127,32.1281339 C69.5207342,29.6281339 82.261812,24.1629714 82.261812,20.6281339 C82.261812,17.0932963 81.5207342,15.6281339 75.5207342,15.6281339 C69.5207342,15.6281339 63.761812,17.6281339 58.761812,19.1281339 C55.4284786,20.1281339 52.9284786,21.1281339 51.261812,22.1281339 C46.9284786,22.1281339 43.9284786,21.6281339 42.261812,20.6281339 C40.5951453,19.6281339 39.261812,19.1281339 38.261812,19.1281339 Z" id="Path-8" stroke="#B7B7B7" stroke-width="2" fill="url(#linearGradient-5)"></path>
                                <path d="M7.26181195,35.6281339 C10.5028897,35.1281339 18.761812,38.5362799 19.261812,41.1281339 C19.761812,43.7199879 18.141116,45.6281339 13.451464,46.6281339 C8.76181195,47.6281339 5.76181195,47.1281339 4.26181195,44.6281339 C2.76181195,42.1281339 2.76181195,39.1281339 3.76181195,37.6281339 C4.76181195,36.1281339 4.0207342,36.1281339 7.26181195,35.6281339 Z" id="Path-16" fill="url(#linearGradient-6)"></path>
                                <path d="M6.5504926,37.1452308 C7.54567378,36.9718029 10.0815969,38.1539387 10.2351232,39.0529387 C10.3886495,39.9519388 9.89101063,40.6137906 8.45104103,40.9606466 C7.01107142,41.3075026 6.08991378,41.1340746 5.62933495,40.2669347 C5.16875613,39.3997947 5.16875613,38.3592268 5.47580868,37.8389428 C5.78286123,37.3186588 5.55531142,37.3186588 6.5504926,37.1452308 Z" id="Path-16" fill="#FFFFFF" opacity="0.322753906"></path>
                                <path d="M57.7782036,59.2944794 C65.9994516,69.5363084 71.0887956,79.645373 73.0462356,89.6216731 C75.9823956,104.586123 69.5228436,105.38271 63.6505236,103.631889 C59.7356436,102.464675 59.3441556,100.013666 62.4760596,96.278862 C60.9101076,97.6041289 60.1271316,97.6041289 60.1271316,96.278862 C60.1271316,94.2909615 62.4760596,91.726938 58.9526676,79.2091469" id="Path-23" stroke="#B7B7B7" stroke-width="2" fill="url(#linearGradient-7)" stroke-linecap="round" transform="translate(65.778204, 81.794479) rotate(-12.000000) translate(-65.778204, -81.794479) "></path>
                            </g>
                            <path d="M35.761812,29.879614 C36.0912924,29.2941914 36.5903291,29.0014801 37.2589223,29.0014801 C38.261812,29.0014801 38.6735016,31.2577479 37.7589223,31.629614 C36.8443429,32.0014801 35.7589223,32.7987722 33.7589223,30.9001261 C31.7589223,29.0014801 33.7647017,27.0014801 35.761812,27.0014801 C37.7589223,27.0014801 39.7589223,27.4867796 40.2589223,29.5 C40.7589223,31.5132204 41.2589223,32.8718661 39.2589223,34 C37.2589223,35.1281339 36.261812,35 33.7589223,34 C32.0903291,33.3333333 31.0903291,31.9598713 30.7589223,29.879614" id="Path-21" stroke="#B7B7B7" stroke-linecap="round"></path>
                            <path d="M51.261812,35.8781339 C51.5912924,35.2927113 52.0903291,35 52.7589223,35 C53.761812,35 54.1735016,37.2562678 53.2589223,37.6281339 C52.3443429,38 51.2589223,38.7972921 49.2589223,36.898646 C47.2589223,35 49.2647017,33 51.261812,33 C53.2589223,33 55.2589223,33.4852995 55.7589223,35.4985199 C56.2589223,37.5117403 56.7589223,38.870386 54.7589223,39.9985199 C52.7589223,41.1266538 51.761812,40.9985199 49.2589223,39.9985199 C47.5903291,39.3318532 46.5903291,37.9583912 46.2589223,35.8781339" id="Path-21" stroke="#B7B7B7" stroke-linecap="round"></path>
                            <path d="M35.2589223,49.3889934 C35.9255889,50.3889934 36.5922556,50.8889934 37.2589223,50.8889934 C38.2589223,50.8889934 38.2589223,49 39.2589223,49 C40.2589223,49 40.2589223,50.8889934 41.7589223,50.8889934 C43.2589223,50.8889934 43.2589223,49 44.2589223,49 C44.9255889,49 45.5922556,49.6296645 46.2589223,50.8889934" id="Path-22" stroke="#B7B7B7" stroke-linecap="round"></path>
                            <path d="M56.7589223,49 C58.1396341,49 59.2589223,47.8807119 59.2589223,46.5 C59.2589223,45.1192881 56.7589223,42 56.7589223,42 C56.7589223,42 54.2589223,45.1192881 54.2589223,46.5 C54.2589223,47.8807119 55.3782104,49 56.7589223,49 Z" id="Oval" stroke="#B7B7B7" fill="#FFFFFF"></path>
                            <path d="M25.761812,88.6281339 C34.0951453,91.2948006 39.761812,92.7948006 42.761812,93.1281339 C45.761812,93.4614672 49.761812,93.4614672 54.761812,93.1281339 C46.761812,94.1281339 40.4284786,94.1281339 35.761812,93.1281339 C31.0951453,92.1281339 27.0951453,90.9614672 23.761812,89.6281339 L25.761812,88.6281339 Z" id="Path-9" fill="#B7B7B7"></path>
                            <path d="M17.761812,95.1281339 C17.4284786,96.4614672 20.0951453,97.4614672 25.761812,98.1281339 C31.4284786,98.7948006 34.8987713,99.2948006 36.1726899,99.6281339 C29.8987713,99.9614672 25.2469583,99.7948006 22.2172509,99.1281339 C19.1875436,98.4614672 17.3690639,97.9614672 16.761812,97.6281339 L17.761812,95.1281339 Z" id="Path-12" fill="#B7B7B7"></path>
                            <path d="M42.761812,136.628134 C34.4284786,136.628134 27.5951453,133.794801 22.261812,128.128134 C16.9284786,122.461467 15.0951453,113.961467 16.761812,102.628134 L54.761812,106.628134 C49.0951453,110.294801 45.9284786,114.294801 45.261812,118.628134 C44.5951453,122.961467 46.511812,128.961467 51.011812,136.628134 L42.761812,136.628134 Z" id="Path-13" fill="url(#linearGradient-8)"></path>
                            <path d="M57.761812,105.628134 C49.4284786,110.294801 45.5951453,115.961467 46.261812,122.628134 C46.9284786,129.294801 49.4284786,133.961467 53.761812,136.628134 L49.261812,136.628134 C45.9284786,132.332256 44.261812,127.66559 44.261812,122.628134 C44.261812,115.07195 46.261812,113.128134 49.261812,110.128134 C51.261812,108.128134 54.0951453,106.628134 57.761812,105.628134 Z" id="Path-11" fill="#B7B7B7"></path>
                            <path d="M43.261812,138.128134 C36.5951453,137.461467 30.761812,135.294801 25.761812,131.628134 C20.761812,127.961467 18.261812,123.961467 18.261812,119.628134 C19.261812,123.961467 22.261812,127.628134 27.261812,130.628134 C32.261812,133.628134 37.4284786,135.628134 42.761812,136.628134 L43.261812,138.128134 Z" id="Path-14" fill="#B7B7B7"></path>
                            <path d="M27.3487312,89.1281339 C29.580914,82.708918 31.2186076,78.7707807 32.261812,77.313722 C33.8266185,75.1281339 34.761812,74.6281339 38.261812,75.6281339 C41.761812,76.6281339 45.3261666,79.1281339 46.5439893,85.6281339 C47.3558711,89.9614672 47.3558711,92.4614672 46.5439893,93.1281339 C41.1089465,92.9614672 36.7031563,92.3364672 33.3266185,91.2531339 C29.9500808,90.1698006 27.9574517,89.4614672 27.3487312,89.1281339 Z" id="Path-17" fill="#FFFFFF" opacity="0.629255022"></path>
                        </g>
                        <path d="M41,99.7080704 L41,171.81693 L59,156.29193 L59,84.1830704 L41,99.7080704 Z" id="Rectangle" stroke="#B7B7B7" stroke-width="2" fill="url(#linearGradient-3)"></path>
                        <path d="M61,83 L36.6255946,74.7839083 C35.1100527,74.2730515 33.4761796,74.2281718 31.9348794,74.6550626 L5.60396676,81.9478809 C4.53947225,82.2427118 3.91553657,83.3446627 4.21036741,84.4091572 C4.37482519,85.0029363 4.80378425,85.4877728 5.37310163,85.7233524 L40.6,100.3 L40.6,100.3 L61,83 Z" id="Rectangle" stroke="#B7B7B7" stroke-width="2" fill-opacity="0.6" fill="url(#linearGradient-2)"></path>
                        <path d="M41,101 L41,174 C41,176.761424 43.2385763,179 46,179 L162,179 C164.761424,179 167,176.761424 167,174 L167,101 L41,101 Z" id="Rectangle" stroke="#B7B7B7" stroke-width="2" fill="url(#linearGradient-9)"></path>
                        <path d="M116.00674,101 L86.9916453,101 L60.2902018,149.611874 L82.6778676,149.611874 L66.7807573,179 L73.1057761,179 L116.981829,137.628134 L91.0067397,137.628134 L116.00674,101 Z" id="Path-3" stroke="#B7B7B7" stroke-width="2" fill-opacity="0.15" fill="#AAAAAA" opacity="0.5"></path>
                    </g>
                </g>
            </g>
        </g>
    </g>
</svg>